<?xml version="1.0" standalone="no"?>
<!DOCTYPE svg PUBLIC "-//W3C//DTD SVG 1.1//EN" "http://www.w3.org/Graphics/SVG/1.1/DTD/svg11.dtd" >
<svg>
<metadata>
Created by FontForge 20090914 at Sat Dec  4 14:43:08 2021
 By www-data
2007 Vic Fieger
</metadata>
<defs>
<font id="GangofThreeRUSbyDaymarius" horiz-adv-x="1139" >
  <font-face 
    font-family="Gang of Three[RUS by Daymarius]"
    font-weight="400"
    font-stretch="normal"
    units-per-em="2048"
    panose-1="2 0 0 0 0 0 0 0 0 0"
    ascent="1638"
    descent="-410"
    x-height="1357"
    cap-height="1356"
    bbox="-58 -357 1960 1850"
    underline-thickness="150"
    underline-position="-142"
    unicode-range="U+001D-U+F005"
  />
<missing-glyph horiz-adv-x="1536" 
d="M256 0v1280h1024v-1280h-1024zM288 32h960v1216h-960v-1216z" />
    <glyph glyph-name=".notdef" horiz-adv-x="1536" 
d="M256 0v1280h1024v-1280h-1024zM288 32h960v1216h-960v-1216z" />
    <glyph glyph-name=".null" horiz-adv-x="0" 
 />
    <glyph glyph-name=".null" horiz-adv-x="0" 
 />
    <glyph glyph-name="space" unicode=" " horiz-adv-x="569" 
 />
    <glyph glyph-name="space" unicode="&#xa0;" horiz-adv-x="569" 
 />
    <glyph glyph-name="exclam" unicode="!" horiz-adv-x="497" 
d="M96 1360h334l-90 -997l-242 3zM99 265h241v-261l-242 1z" />
    <glyph glyph-name="quotedbl" unicode="&#x22;" horiz-adv-x="598" 
d="M69 1399h211v-407h-211v407zM341 1399h195v-407h-195v407z" />
    <glyph glyph-name="numbersign" unicode="#" 
 />
    <glyph glyph-name="dollar" unicode="$" horiz-adv-x="1028" 
d="M578 576l-0.000976562 -309.002c24.667 8 47.334 20 68.001 36c44.667 32.667 67 72.334 67 119.001s-22 86.334 -66 119.001c-20.667 15.333 -43.667 27 -69 35zM467.999 1117c-36.667 -8 -69.334 -22.333 -98.001 -43c-44.667 -32.667 -67 -72.667 -67 -120
c0 -46 22.333 -85.333 67 -118c28.667 -21.333 61.334 -36 98.001 -44v325zM467.999 593.998c-111.333 9.33301 -206.999 43.998 -286.999 103.998c-96 70.667 -144 156.667 -144 258c0 100 48.333 185.667 145 257c80.667 60 176 94.667 286 104v210h110v-208
c117.333 -7.33301 218.666 -42.666 303.999 -105.999c41.333 -31.333 74.333 -65.333 99 -102l-243 -80c-10.667 16 -24.667 30.333 -42 43c-34.667 24.667 -74 40 -118 46v-341c98.667 -12.667 185 -46.334 259 -101.001c96 -70.667 144 -156.667 144 -258
c0 -100 -48.333 -185.333 -145 -256c-74 -54.667 -160 -88.334 -258 -101.001v-264h-110v258c-129.333 2.66699 -240 38.334 -332 107.001c-42.667 30.667 -75.667 64.334 -99 101.001l242 80c10.667 -15.333 24.667 -29.666 42 -42.999c41.333 -30 90.333 -46.333 147 -49
v341z" />
    <glyph glyph-name="percent" unicode="%" horiz-adv-x="1821" 
 />
    <glyph glyph-name="ampersand" unicode="&#x26;" horiz-adv-x="1167" 
d="M519 1075c-108.667 0 -158.332 -35.335 -148.999 -106.002s70.333 -110.667 183 -120l549 4l-8 -268h-80c-1.33301 -221.333 29 -331.666 91 -330.999v-253c-206 -24 -326.667 91.667 -362 347v115l164 112l-165 2l-390 2c-6.66699 -168 7.5 -263.5 42.5 -286.5
s123.167 -26.167 264.5 -9.5l100 -251c-157.333 -37.333 -309.333 -38.666 -456 -3.99902c-62.667 14.667 -115.834 43.5 -159.501 86.5s-69.167 103.5 -76.5 181.5v394c16 105.333 64.333 155.333 145 150c-81.333 17.333 -117.5 106.333 -108.5 267
s149.5 244.667 421.5 252h135l36 -284h-177z" />
    <glyph glyph-name="quotesingle" unicode="'" horiz-adv-x="353" 
d="M69 1399h211v-407h-211v407z" />
    <glyph glyph-name="parenleft" unicode="(" horiz-adv-x="626" 
d="M548 1644c-158.667 -355.333 -238 -716 -238 -1082c0 -284 48 -571.667 144 -863l-137 -1c-124.667 326 -187 647.667 -187 965c0 318 62.667 632 188 942z" />
    <glyph glyph-name="parenright" unicode=")" horiz-adv-x="626" 
d="M130 -302c158.667 355.333 238 716 238 1082c0 284 -48 571.667 -144 863l137 1c124.667 -326 187 -647.667 187 -965c0 -318 -62.667 -632 -188 -942z" />
    <glyph glyph-name="asterisk" unicode="*" horiz-adv-x="797" 
 />
    <glyph glyph-name="plus" unicode="+" horiz-adv-x="1196" 
 />
    <glyph glyph-name="comma" unicode="," horiz-adv-x="647" 
d="M227 462l241 -92l-157 -426l-258 83z" />
    <glyph glyph-name="hyphen" unicode="-" horiz-adv-x="715" 
d="M110 950l422 1l-45 -258h-422z" />
    <glyph glyph-name="hyphen" unicode="&#xad;" horiz-adv-x="715" 
d="M110 950l422 1l-45 -258h-422z" />
    <glyph glyph-name="period" unicode="." horiz-adv-x="583" 
d="M142 416h256v-316l-257 1z" />
    <glyph glyph-name="slash" unicode="/" horiz-adv-x="676" 
d="M592 1515l-421 -1860l-92 21l339 1918z" />
    <glyph glyph-name="zero" unicode="0" horiz-adv-x="1102" 
d="M206 1360l682.999 0.000976562c78.667 -10.667 120.334 -63.334 125.001 -158.001l-1 -1046c3.33301 -106.667 -39 -159 -127 -157l-685 1c-88.667 -6.66699 -129.667 43.333 -123 150l1 1051c-4 98 38.333 151 127 159zM405.999 1090
c-76.667 0.666992 -111.667 -18.668 -105 -58.001l-1 -707c10 -45.333 47 -64.666 111 -57.999h291c59.333 -9.33301 90 11.334 92 62.001l1 697c4.66699 43.333 -33.333 64.666 -114 63.999h-275zM553.999 884.999c86.667 14.667 123.667 -56.665 111 -213.998
c12.667 -162 -24.333 -233.333 -111 -214c-84.667 -10.667 -121.667 60.666 -111 213.999c-8.66699 159.333 28.333 230.666 111 213.999z" />
    <glyph glyph-name="one" unicode="1" horiz-adv-x="1102" 
d="M364 1362h231c60.667 -8.66699 91 -78 91 -208v-884h109l-1 -269l-510 -2v272l122 -1v813h-84z" />
    <glyph glyph-name="two" unicode="2" horiz-adv-x="1102" 
d="M251 1362l652.999 -0.999023c66 1.33301 99.667 -51 101 -157v-250c-1.33301 -66.667 -27.666 -118.667 -78.999 -156l-520 -517l395 1v110h204v-392l-922 2v296l641 657l-3 142l-364 -3c-28 -0.666992 -42.667 -43 -44 -127l-224 -2l3 267
c-0.666992 87.333 52.333 130.666 159 129.999z" />
    <glyph glyph-name="three" unicode="3" horiz-adv-x="1099" 
d="M206 1359l693.001 -0.000976562c74.667 0 112.334 -47.333 113.001 -142l1 -420c-3.33301 -48 -35.333 -80.667 -96 -98c63.333 -4 94.666 -34 93.999 -90l-2 -456c1.33301 -101.333 -36.334 -152.333 -113.001 -153h-715c-76.667 -7.33301 -111 38.334 -103 137.001
l2 242l243 1l3 -97h437l2 293l-378 -1l1 248l375 1l2 267h-440l-1 -79l-244 -1v218c-0.666992 86.667 41.333 130 126 130z" />
    <glyph glyph-name="four" unicode="4" horiz-adv-x="1102" 
d="M756 1360h238v-870h76v-279l-81 1l-1 -212h-216v206h-711v284zM770 984l-384 -494h383z" />
    <glyph glyph-name="five" unicode="5" horiz-adv-x="1102" 
d="M78 1359l934.999 -2.00098v-269h-696l1 -223l622 1c52.667 -8.66699 79.334 -53 80.001 -133v-586c-6 -95.333 -45.667 -145 -119 -149l-712 3c-72 8 -110 49.667 -114 125v216h234c-14 -62 36.667 -89.667 152 -83h240c74 -9.33301 106 38.334 96 143.001
c9.33301 108 -12 161.333 -64 160h-655v797z" />
    <glyph glyph-name="six" unicode="6" horiz-adv-x="1102" 
d="M926 1361l-1.99902 -284.998h-567c-37.333 -0.666992 -53 -42.334 -47 -125.001v-126h600c61.333 -6 96 -59.667 104 -161v-464c-6.66699 -132.667 -37.334 -199.334 -92.001 -200.001h-760c-57.333 1.33301 -86 53 -86 155v1048c0.666992 104.667 32 157.667 94 159z
M310.001 560.002v-297l502 1l-1 296h-501z" />
    <glyph glyph-name="seven" unicode="7" horiz-adv-x="1102" 
d="M81 1360h932v-268l-435 -1093l-276 2l458 1090l-458 2v-144h-222z" />
    <glyph glyph-name="eight" unicode="8" horiz-adv-x="1102" 
d="M180 1363h752.999c56.667 -0.666992 84.334 -53.667 83.001 -159l-1 -395c2 -65.333 -24.333 -106.333 -79 -123c56.667 -12.667 84 -55.334 82 -128.001v-384c0.666992 -115.333 -29.333 -173.333 -90 -174h-753c-58 0 -86.667 52.667 -86 158l1 396
c1.33301 64 26.666 105 75.999 123c-51.333 21.333 -76.666 66 -75.999 134v391c-0.666992 106.667 29.333 160.334 90 161.001zM363.999 1091v-253h389l1 253h-390zM373.999 554v-269h380v269h-380z" />
    <glyph glyph-name="nine" unicode="9" horiz-adv-x="1102" 
d="M165 0l3.99805 285.999h566c38 0 53.667 41.333 47 124v126h-600c-61.333 6 -95.666 60 -102.999 162v463c6 132.667 36 199.334 90 200.001l761 1c58 -2 87 -54 87 -156v-1048c-1.33301 -104 -32.666 -156.667 -93.999 -158h-758zM781.998 801.999v296l-502 -2l1 -294
h501z" />
    <glyph glyph-name="colon" unicode=":" horiz-adv-x="583" 
d="M142 904h256v-316l-257 1zM142 416h256v-316l-257 1z" />
    <glyph glyph-name="semicolon" unicode=";" horiz-adv-x="647" 
d="M198 903h256v-316l-257 1zM227 462l241 -92l-157 -426l-258 83z" />
    <glyph glyph-name="semicolon" unicode="&#x37e;" horiz-adv-x="647" 
d="M198 903h256v-316l-257 1zM227 462l241 -92l-157 -426l-258 83z" />
    <glyph glyph-name="less" unicode="&#x3c;" horiz-adv-x="1196" 
 />
    <glyph glyph-name="equal" unicode="=" horiz-adv-x="1196" 
 />
    <glyph glyph-name="greater" unicode="&#x3e;" horiz-adv-x="1196" 
 />
    <glyph glyph-name="question" unicode="?" horiz-adv-x="1019" 
d="M234 1359l626 -0.000976562c65.333 -19.333 98.333 -59.666 99 -120.999l2 -312c-16 -50 -41.333 -94 -76 -132l-174 -167c-44 -42.667 -66 -104 -66 -184l-1 -120l-291 2l1 232c0 45.333 21.333 89.666 64 132.999l256 254l1 74c18 50 -27.333 72 -136 66l-129 1
c-63.333 12.667 -93.333 -12.666 -90 -75.999l-263 3v233c22.667 73.333 81.667 111.333 177 114zM359 256.999h282v-250l-285 -4z" />
    <glyph glyph-name="at" unicode="@" horiz-adv-x="2079" 
 />
    <glyph glyph-name="A" unicode="A" horiz-adv-x="1306" 
d="M594 1460l246 -93l-29 -96h396l-41 -296l-216 -1l343 -919l-265 -91l-352 940l-393 -932l-269 82l388 924l-283 1l22 292h374zM721 440l153 -168l-283 -284l-154 166z" />
    <glyph glyph-name="B" unicode="B" horiz-adv-x="1150" 
d="M101 1359l624 0.000976562c134 -7.33301 215.333 -39 244 -95s40.334 -116 35.001 -180s-53 -145.333 -143 -244c140 5.33301 218 -44.667 234 -150v-436c-7.33301 -78 -32.833 -138.5 -76.5 -181.5s-96.834 -71.833 -159.501 -86.5
c-146.667 -34.667 -298.667 -19.334 -456 45.999l100 251c141.333 -44.667 229.5 -55.5 264.5 -32.5s49.167 138.167 42.5 345.5l-378 -2v-246c-35.333 -255.333 -156 -371 -362 -347v253c62 -0.666992 88 52 78 158v173h-80l1 255l102 -2v237h-106zM432 1075v-224l129 28
c90.667 48.667 132 114 124 196h-253z" />
    <glyph glyph-name="C" unicode="C" horiz-adv-x="1247" 
d="M922 1357c177.333 -42 271.332 -173.668 281.999 -395.001h-265c-2.66699 70 -47.667 101.667 -135 95h-356c-73.333 -158.667 -111.833 -278.667 -115.5 -360s17.333 -157.833 63 -229.5s95.334 -122.667 149.001 -153s127.5 -40.833 221.5 -31.5s181 70 261 182
l179 -223c-104 -100.667 -188.333 -167.834 -253 -201.501s-150.167 -51.167 -256.5 -52.5s-203.5 19.334 -291.5 62.001s-168.667 121.834 -242 237.501s-106 247.5 -98 395.5s27.333 243 58 285l199 89h-238l16 95l23 91l44 114h755z" />
    <glyph glyph-name="D" unicode="D" horiz-adv-x="1217" 
d="M93 1359h882l192 -1v-608c8 -102 -1.83301 -199.833 -29.5 -293.5s-81 -185 -160 -274s-166 -143.833 -261 -164.5s-313.5 -27 -655.5 -19l2 284l190 2l-112 56v721h-96zM430 1062v-785c101.333 -14 188.666 1.5 261.999 46.5s122.333 101.333 147 169
s32.334 257.5 23.001 569.5h-432z" />
    <glyph glyph-name="E" unicode="E" horiz-adv-x="1107" 
d="M106 1362h962.999l-80 -302l-486 -2v-149h533l-48 -272l-492 1c-10 -144 -1.16699 -239.167 26.5 -285.5s73.834 -69.833 138.501 -70.5h366l-49 -283c-294 -6.66699 -464.5 2.5 -511.5 27.5s-96 66.333 -147 124s-83.167 142.5 -96.5 254.5v233l-165 -1l41 274l135 -1
v156l-176 -1z" />
    <glyph glyph-name="F" unicode="F" horiz-adv-x="1036" 
d="M99 1360h891l-64 -287h-462l-1 -332l36 136l369 -75l-56 -297l-352 70l1 -538l-300 -63v1032l145 67h-256z" />
    <glyph glyph-name="G" unicode="G" horiz-adv-x="1294" 
d="M145 1352h1053l-50 -300h-719v-635c-7.33301 -90.667 43 -129.667 151 -117h358l-1 235l-240 -1v284l535 -1v-817l-1 -78l-290 -56v238l-111 -104l-429 -1c-96.667 14 -166 50.833 -208 110.5s-63.333 145.5 -64 257.5v597l176 88l-262 -1z" />
    <glyph glyph-name="H" unicode="H" horiz-adv-x="1193" 
d="M56 1356h302v-464l440 3v457l302 2v-471h52l24 -275h-76v-440c-20 -60 -45 -99.833 -75 -119.5s-76.833 -34.667 -140.5 -45s-127.5 -15.5 -191.5 -15.5l-2 264c61.333 4 99.333 29.333 114 76v279l-367 1l-80 127v-715l-300 -51z" />
    <glyph glyph-name="I" unicode="I" horiz-adv-x="698" 
d="M85 1360h545l-40 -288h-88v-795h112l-16 -279h-545l27 281l117 -1l2 723l126 71h-269z" />
    <glyph glyph-name="J" unicode="J" horiz-adv-x="698" 
d="M169 1357l470.001 0.000976562v-1045c-3.33301 -90.667 -14.5 -169.167 -33.5 -235.5s-74.167 -134.333 -165.5 -204s-211 -112.167 -359 -127.5l-24 300c93.333 8 166.666 46.167 219.999 114.5s75.333 349.166 66 842.499l136 70h-378z" />
    <glyph glyph-name="K" unicode="K" horiz-adv-x="1171" 
d="M859 1391l207.002 -207l-444 -447c149.333 -271.333 245.166 -411 287.499 -419s92.833 12.667 151.5 62l109 -269c-72.667 -78 -141.834 -120.5 -207.501 -127.5s-131.5 1.5 -197.5 25.5s-188.333 203.333 -367 538l-61 -66v-482h-285v1361h284l1 -491z" />
    <glyph glyph-name="L" unicode="L" horiz-adv-x="1035" 
d="M152 1363h297l-1 -715l170 -2l-29 -240l-133 -1v-89l534 1l-31 -314l-921 2l45 309h63v89h-98l26 244l76 1z" />
    <glyph glyph-name="M" unicode="M" horiz-adv-x="1403" 
d="M534 1456l315.999 -3v-98h339c82.667 -12.667 128.334 -58.667 137.001 -138l-2 -907c-34 -144 -81.667 -235.5 -143 -274.5s-137 -58.5 -227 -58.5v303c54.667 -4.66699 77.667 124.333 69 387v385h-170v-1008l-322 -57l1 1065h-132v-1025l-322 -41l-1 1009l109 65h-139
l83 295h404v101z" />
    <glyph glyph-name="N" unicode="N" horiz-adv-x="1205" 
d="M52 1357h289.998l-1 -216l34 84c127.333 -34 221.5 -72.167 282.5 -114.5s124.167 -111.5 189.5 -207.5l14 -40l-1 492h288v-1122c4.66699 -51.333 -17.5 -105.833 -66.5 -163.5s-149.5 -82.5 -301.5 -74.5v283c66.667 5.33301 94.667 48.333 84 129
c0.666992 45.333 -9.16602 94.5 -29.499 147.5s-83.666 123.667 -189.999 212s-207.5 145.833 -303.5 172.5v-944h-291z" />
    <glyph glyph-name="O" unicode="O" horiz-adv-x="1247" 
d="M342 1363l0.000976562 -130.999l78 131h660c81.333 -22.667 119.666 -137.334 114.999 -344.001v-901c-16 -73.333 -78.333 -111.666 -187 -114.999h-763c-113.333 -4.66699 -179 44.666 -197 147.999v1151zM342.001 1068v-770h558v770h-558z" />
    <glyph glyph-name="P" unicode="P" horiz-adv-x="1145" 
d="M933 1356c101.333 -18.667 153.667 -86.001 157 -202.001l-2 -508c-9.33301 -104 -64.333 -155 -165 -153h-411l-96 172v-454c-16 -101.333 -50.333 -164.166 -103 -188.499s-136.667 -35.833 -252 -34.5l-1 263c48 -11.333 69.667 55.667 65 201v531l156 87l-235 1
l59 285h828zM408.001 1070l1 -258l379 -1v259h-380z" />
    <glyph glyph-name="Q" unicode="Q" horiz-adv-x="1259" 
d="M118 1362l950.999 -0.000976562c96 -43.333 140 -129.666 132 -258.999l-1 -916c-7.33301 -117.333 -62.333 -179.333 -165 -186h-311l413 -89l-59 -269l-555 101l53 257l-389 -1c-69.333 10 -114.666 86.667 -135.999 230v765l121 68l-123 -1zM346.999 1067v-896l68 125
h490v771h-558z" />
    <glyph glyph-name="R" unicode="R" horiz-adv-x="1167" 
d="M109 1360l862 0.00195312c60.667 -7.33301 102.334 -46.333 125.001 -117l-2 -402c-19.333 -92.667 -47.333 -154.834 -84 -186.501s-102 -68.167 -196 -109.5l79 -126c58.667 -92 141.667 -145 249 -159l-23 -308l-161 30
c-104.667 21.333 -215.334 130.666 -332.001 327.999l-63 120l-157 -74l-1 -357l-280 -2v266l-110 235l108 68l2 421l137 76l-216 -1zM406 1062v-385l299 118c72.667 26.667 109 69.667 109 129v138h-408z" />
    <glyph glyph-name="S" unicode="S" horiz-adv-x="1112" 
d="M95 1362l742 1c80.667 -20 132.834 -65 156.501 -135s35.5 -131.333 35.5 -184l-262 -52c0 62.667 -59 89.334 -177 80.001h-206l629 -616c46.667 -60 52.667 -161 18 -303c-34.667 -90.667 -120.334 -142 -257.001 -154l-505 1c-58.667 19.333 -105 56.5 -139 111.5
s-60.333 123.167 -79 204.5l274 93c7.33301 -76 38 -112.667 92 -110l267 -1c40.667 9.33301 34 38.666 -20 87.999l-585 572l144 114h-184z" />
    <glyph glyph-name="T" unicode="T" horiz-adv-x="1015" 
d="M70 1360l908 0.000976562l-37 -300h-323v-649c-11.333 -100.667 22.667 -160.334 102 -179.001l-73 -282c-91.333 -2.66699 -168.5 27 -231.5 89s-95.5 144 -97.5 246v715l129 62l-407 1z" />
    <glyph glyph-name="U" unicode="U" horiz-adv-x="1243" 
d="M373 1376c-38 -350.667 -43.168 -585.667 -15.501 -705s71.834 -213.666 132.501 -282.999s198 -86 412 -50l-1 1024l290 -17v-1310l-290 -29v165l-52 -181l-63 -14c-187.333 -3.33301 -328.833 23 -424.5 79s-174.5 169.667 -236.5 341s-87.333 418.666 -76 741.999
l17 185z" />
    <glyph glyph-name="V" unicode="V" horiz-adv-x="1303" 
d="M298 1377l364 -1023c122 98.667 201 207 237 325s49.667 246.667 41 386l-146 -1l33 297l405 2c38 -154.667 44.333 -315.834 19 -483.501s-66 -307.334 -122 -419.001s-140 -234.5 -252 -368.5l-144 55l68 -191l-305 -115l-493 1456z" />
    <glyph glyph-name="W" unicode="W" horiz-adv-x="1451" 
d="M287 1367l168 -824c81.333 68.667 128.333 139.5 141 212.5s1.33398 176.167 -33.999 309.5h-116l45 294l345 -1l170 -791c49.333 30.667 85.666 88.167 108.999 172.5s17.666 195.5 -17.001 333.5h-108l49 286l315 -1c60.667 -334.667 77.834 -557 51.501 -667
s-58.333 -198.333 -96 -265s-94.167 -133 -169.5 -199l-80 55l67 -313l-285 -104l-123 563c-27.333 -86.667 -70.333 -153 -129 -199l-66 32l56 -292l-268 -119l-316 1448z" />
    <glyph glyph-name="X" unicode="X" horiz-adv-x="1260" 
d="M266 1398l433.999 -586c117.333 168.667 210.333 355 279 559l279 -112c-88.667 -232 -217.667 -456 -387 -672l363 -487l-252 -201l-317 433c-63.333 -75.333 -127.833 -141 -193.5 -197s-154.5 -115 -266.5 -177l-206 218c228.667 150 397.334 281.667 506.001 395
l-479 639z" />
    <glyph glyph-name="Y" unicode="Y" horiz-adv-x="1083" 
d="M220 1357l380 -745c69.333 70 117.5 163.5 144.5 280.5s34.167 258.5 21.5 424.5l278 -11c-3.33301 -353.333 -41.166 -600.166 -113.499 -740.499s-161.333 -266.333 -267 -378s-232.834 -214.834 -381.501 -309.501l-119 282l257 210l-417 803z" />
    <glyph glyph-name="Z" unicode="Z" horiz-adv-x="1158" 
d="M144 1359h919.998l-33 -295c-188 -104.667 -341.667 -232 -461 -382s-184.666 -279.667 -195.999 -389l408 1c52.667 18 94.334 57.667 125.001 119l222 -147c-55.333 -120.667 -113 -197.334 -173 -230.001s-135.667 -44.667 -227 -36h-490
c-52 -4.66699 -93.833 8.33301 -125.5 39s-50.834 74.167 -57.501 130.5s-4.66699 115.5 6 177.5s65.334 166.833 164.001 314.5s219.667 282.834 363 405.501h-546z" />
    <glyph glyph-name="bracketleft" unicode="[" horiz-adv-x="569" 
 />
    <glyph glyph-name="backslash" unicode="\" horiz-adv-x="569" 
 />
    <glyph glyph-name="bracketright" unicode="]" horiz-adv-x="569" 
 />
    <glyph glyph-name="asciicircum" unicode="^" horiz-adv-x="961" 
 />
    <glyph glyph-name="underscore" unicode="_" 
 />
    <glyph glyph-name="grave" unicode="`" horiz-adv-x="596" 
d="M492 1606l-84 -99l-292 234l140 109z" />
    <glyph glyph-name="a" unicode="a" horiz-adv-x="1306" 
d="M594 1460l246 -93l-29 -96h396l-41 -296l-216 -1l343 -919l-265 -91l-352 940l-393 -932l-269 82l388 924l-283 1l22 292h374zM721 440l153 -168l-283 -284l-154 166z" />
    <glyph glyph-name="b" unicode="b" horiz-adv-x="1150" 
d="M101 1359l624 0.000976562c134 -7.33301 215.333 -39 244 -95s40.334 -116 35.001 -180s-53 -145.333 -143 -244c140 5.33301 218 -44.667 234 -150v-436c-7.33301 -78 -32.833 -138.5 -76.5 -181.5s-96.834 -71.833 -159.501 -86.5
c-146.667 -34.667 -298.667 -19.334 -456 45.999l100 251c141.333 -44.667 229.5 -55.5 264.5 -32.5s49.167 138.167 42.5 345.5l-378 -2v-246c-35.333 -255.333 -156 -371 -362 -347v253c62 -0.666992 88 52 78 158v173h-80l1 255l102 -2v237h-106zM432 1075v-224l129 28
c90.667 48.667 132 114 124 196h-253z" />
    <glyph glyph-name="c" unicode="c" horiz-adv-x="1247" 
d="M922 1357c177.333 -42 271.332 -173.668 281.999 -395.001h-265c-2.66699 70 -47.667 101.667 -135 95h-356c-73.333 -158.667 -111.833 -278.667 -115.5 -360s17.333 -157.833 63 -229.5s95.334 -122.667 149.001 -153s127.5 -40.833 221.5 -31.5s181 70 261 182
l179 -223c-104 -100.667 -188.333 -167.834 -253 -201.501s-150.167 -51.167 -256.5 -52.5s-203.5 19.334 -291.5 62.001s-168.667 121.834 -242 237.501s-106 247.5 -98 395.5s27.333 243 58 285l199 89h-238l16 95l23 91l44 114h755z" />
    <glyph glyph-name="d" unicode="d" horiz-adv-x="1217" 
d="M93 1359h882l192 -1v-608c8 -102 -1.83301 -199.833 -29.5 -293.5s-81 -185 -160 -274s-166 -143.833 -261 -164.5s-313.5 -27 -655.5 -19l2 284l190 2l-112 56v721h-96zM430 1062v-785c101.333 -14 188.666 1.5 261.999 46.5s122.333 101.333 147 169
s32.334 257.5 23.001 569.5h-432z" />
    <glyph glyph-name="e" unicode="e" horiz-adv-x="1163" 
d="M59 1352h989v-285l-571 -1v-159l452 -1l-32 -275h-420v-353l588 68l84 -302l-1042 -131l-32 302l118 20v394h-124l28 257l98 1l-1 116l161 59l-296 -1v291z" />
    <glyph glyph-name="f" unicode="f" horiz-adv-x="1036" 
d="M99 1360h891l-64 -287h-462l-1 -332l36 136l369 -75l-56 -297l-352 70l1 -538l-300 -63v1032l145 67h-256z" />
    <glyph glyph-name="g" unicode="g" horiz-adv-x="1294" 
d="M145 1352h1053l-50 -300h-719v-635c-7.33301 -90.667 43 -129.667 151 -117h358l-1 235l-240 -1v284l535 -1v-817l-1 -78l-290 -56v238l-111 -104l-429 -1c-96.667 14 -166 50.833 -208 110.5s-63.333 145.5 -64 257.5v597l176 88l-262 -1z" />
    <glyph glyph-name="h" unicode="h" horiz-adv-x="1193" 
d="M56 1356h302v-464l440 3v457l302 2v-471h52l24 -275h-76v-440c-20 -60 -45 -99.833 -75 -119.5s-76.833 -34.667 -140.5 -45s-127.5 -15.5 -191.5 -15.5l-2 264c61.333 4 99.333 29.333 114 76v279l-367 1l-80 127v-715l-300 -51z" />
    <glyph glyph-name="i" unicode="i" horiz-adv-x="457" 
d="M385 1367l-1 -1366h-301l-1 1320z" />
    <glyph glyph-name="j" unicode="j" horiz-adv-x="698" 
d="M169 1357l470.001 0.000976562v-1045c-3.33301 -90.667 -14.5 -169.167 -33.5 -235.5s-74.167 -134.333 -165.5 -204s-211 -112.167 -359 -127.5l-24 300c93.333 8 166.666 46.167 219.999 114.5s75.333 349.166 66 842.499l136 70h-378z" />
    <glyph glyph-name="k" unicode="k" horiz-adv-x="1171" 
d="M859 1391l207.002 -207l-444 -447c149.333 -271.333 245.166 -411 287.499 -419s92.833 12.667 151.5 62l109 -269c-72.667 -78 -141.834 -120.5 -207.501 -127.5s-131.5 1.5 -197.5 25.5s-188.333 203.333 -367 538l-61 -66v-482h-285v1361h284l1 -491z" />
    <glyph glyph-name="l" unicode="l" horiz-adv-x="1035" 
d="M152 1363h297l-1 -715l170 -2l-29 -240l-133 -1v-89l534 1l-31 -314l-921 2l45 309h63v89h-98l26 244l76 1z" />
    <glyph glyph-name="m" unicode="m" horiz-adv-x="1403" 
d="M534 1456l315.999 -3v-98h339c82.667 -12.667 128.334 -58.667 137.001 -138l-2 -907c-34 -144 -81.667 -235.5 -143 -274.5s-137 -58.5 -227 -58.5v303c54.667 -4.66699 77.667 124.333 69 387v385h-170v-1008l-322 -57l1 1065h-132v-1025l-322 -41l-1 1009l109 65h-139
l83 295h404v101z" />
    <glyph glyph-name="n" unicode="n" horiz-adv-x="1205" 
d="M52 1357h289.998l-1 -216l34 84c127.333 -34 221.5 -72.167 282.5 -114.5s124.167 -111.5 189.5 -207.5l14 -40l-1 492h288v-1122c4.66699 -51.333 -17.5 -105.833 -66.5 -163.5s-149.5 -82.5 -301.5 -74.5v283c66.667 5.33301 94.667 48.333 84 129
c0.666992 45.333 -9.16602 94.5 -29.499 147.5s-83.666 123.667 -189.999 212s-207.5 145.833 -303.5 172.5v-944h-291z" />
    <glyph glyph-name="o" unicode="o" horiz-adv-x="1247" 
d="M342 1363l0.000976562 -130.999l78 131h660c81.333 -22.667 119.666 -137.334 114.999 -344.001v-901c-16 -73.333 -78.333 -111.666 -187 -114.999h-763c-113.333 -4.66699 -179 44.666 -197 147.999v1151zM342.001 1068v-770h558v770h-558z" />
    <glyph glyph-name="p" unicode="p" horiz-adv-x="1145" 
d="M933 1356c101.333 -18.667 153.667 -86.001 157 -202.001l-2 -508c-9.33301 -104 -64.333 -155 -165 -153h-411l-96 172v-454c-16 -101.333 -50.333 -164.166 -103 -188.499s-136.667 -35.833 -252 -34.5l-1 263c48 -11.333 69.667 55.667 65 201v531l156 87l-235 1
l59 285h828zM408.001 1070l1 -258l379 -1v259h-380z" />
    <glyph glyph-name="q" unicode="q" horiz-adv-x="1259" 
d="M118 1362l950.999 -0.000976562c96 -43.333 140 -129.666 132 -258.999l-1 -916c-7.33301 -117.333 -62.333 -179.333 -165 -186h-311l413 -89l-59 -269l-555 101l53 257l-389 -1c-69.333 10 -114.666 86.667 -135.999 230v765l121 68l-123 -1zM346.999 1067v-896l68 125
h490v771h-558z" />
    <glyph glyph-name="r" unicode="r" horiz-adv-x="1167" 
d="M109 1360l862 0.00195312c60.667 -7.33301 102.334 -46.333 125.001 -117l-2 -402c-19.333 -92.667 -47.333 -154.834 -84 -186.501s-102 -68.167 -196 -109.5l79 -126c58.667 -92 141.667 -145 249 -159l-23 -308l-161 30
c-104.667 21.333 -215.334 130.666 -332.001 327.999l-63 120l-157 -74l-1 -357l-280 -2v266l-110 235l108 68l2 421l137 76l-216 -1zM406 1062v-385l299 118c72.667 26.667 109 69.667 109 129v138h-408z" />
    <glyph glyph-name="s" unicode="s" horiz-adv-x="1112" 
d="M95 1362l742 1c80.667 -20 132.834 -65 156.501 -135s35.5 -131.333 35.5 -184l-262 -52c0 62.667 -59 89.334 -177 80.001h-206l629 -616c46.667 -60 52.667 -161 18 -303c-34.667 -90.667 -120.334 -142 -257.001 -154l-505 1c-58.667 19.333 -105 56.5 -139 111.5
s-60.333 123.167 -79 204.5l274 93c7.33301 -76 38 -112.667 92 -110l267 -1c40.667 9.33301 34 38.666 -20 87.999l-585 572l144 114h-184z" />
    <glyph glyph-name="t" unicode="t" horiz-adv-x="1015" 
d="M70 1360l908 0.000976562l-37 -300h-323v-649c-11.333 -100.667 22.667 -160.334 102 -179.001l-73 -282c-91.333 -2.66699 -168.5 27 -231.5 89s-95.5 144 -97.5 246v715l129 62l-407 1z" />
    <glyph glyph-name="u" unicode="u" horiz-adv-x="1243" 
d="M373 1376c-38 -350.667 -43.168 -585.667 -15.501 -705s71.834 -213.666 132.501 -282.999s198 -86 412 -50l-1 1024l290 -17v-1310l-290 -29v165l-52 -181l-63 -14c-187.333 -3.33301 -328.833 23 -424.5 79s-174.5 169.667 -236.5 341s-87.333 418.666 -76 741.999
l17 185z" />
    <glyph glyph-name="v" unicode="v" horiz-adv-x="1303" 
d="M298 1377l364 -1023c122 98.667 201 207 237 325s49.667 246.667 41 386l-146 -1l33 297l405 2c38 -154.667 44.333 -315.834 19 -483.501s-66 -307.334 -122 -419.001s-140 -234.5 -252 -368.5l-144 55l68 -191l-305 -115l-493 1456z" />
    <glyph glyph-name="w" unicode="w" horiz-adv-x="1451" 
d="M287 1367l168 -824c81.333 68.667 128.333 139.5 141 212.5s1.33398 176.167 -33.999 309.5h-116l45 294l345 -1l170 -791c49.333 30.667 85.666 88.167 108.999 172.5s17.666 195.5 -17.001 333.5h-108l49 286l315 -1c60.667 -334.667 77.834 -557 51.501 -667
s-58.333 -198.333 -96 -265s-94.167 -133 -169.5 -199l-80 55l67 -313l-285 -104l-123 563c-27.333 -86.667 -70.333 -153 -129 -199l-66 32l56 -292l-268 -119l-316 1448z" />
    <glyph glyph-name="x" unicode="x" horiz-adv-x="1260" 
d="M266 1398l433.999 -586c117.333 168.667 210.333 355 279 559l279 -112c-88.667 -232 -217.667 -456 -387 -672l363 -487l-252 -201l-317 433c-63.333 -75.333 -127.833 -141 -193.5 -197s-154.5 -115 -266.5 -177l-206 218c228.667 150 397.334 281.667 506.001 395
l-479 639z" />
    <glyph glyph-name="y" unicode="y" horiz-adv-x="1083" 
d="M220 1357l380 -745c69.333 70 117.5 163.5 144.5 280.5s34.167 258.5 21.5 424.5l278 -11c-3.33301 -353.333 -41.166 -600.166 -113.499 -740.499s-161.333 -266.333 -267 -378s-232.834 -214.834 -381.501 -309.501l-119 282l257 210l-417 803z" />
    <glyph glyph-name="z" unicode="z" horiz-adv-x="1158" 
d="M144 1359h919.998l-33 -295c-188 -104.667 -341.667 -232 -461 -382s-184.666 -279.667 -195.999 -389l408 1c52.667 18 94.334 57.667 125.001 119l222 -147c-55.333 -120.667 -113 -197.334 -173 -230.001s-135.667 -44.667 -227 -36h-490
c-52 -4.66699 -93.833 8.33301 -125.5 39s-50.834 74.167 -57.501 130.5s-4.66699 115.5 6 177.5s65.334 166.833 164.001 314.5s219.667 282.834 363 405.501h-546z" />
    <glyph glyph-name="braceleft" unicode="{" horiz-adv-x="684" 
 />
    <glyph glyph-name="bar" unicode="|" horiz-adv-x="532" 
 />
    <glyph glyph-name="braceright" unicode="}" horiz-adv-x="684" 
 />
    <glyph glyph-name="asciitilde" unicode="~" horiz-adv-x="1196" 
 />
    <glyph glyph-name="exclamdown" unicode="&#xa1;" horiz-adv-x="510" 
d="M411 4h-334l90 997l242 -3zM408 1099h-241v261l242 -1z" />
    <glyph glyph-name="cent" unicode="&#xa2;" 
 />
    <glyph glyph-name="sterling" unicode="&#xa3;" 
 />
    <glyph glyph-name="yen" unicode="&#xa5;" 
 />
    <glyph glyph-name="brokenbar" unicode="&#xa6;" horiz-adv-x="532" 
 />
    <glyph glyph-name="section" unicode="&#xa7;" 
 />
    <glyph glyph-name="dieresis" unicode="&#xa8;" horiz-adv-x="643" 
d="M274 1548l-124 -25l-125 227l234 46zM377 1796l238 -51l-132 -227l-117 29z" />
    <glyph glyph-name="copyright" unicode="&#xa9;" horiz-adv-x="1509" 
 />
    <glyph glyph-name="ordfeminine" unicode="&#xaa;" horiz-adv-x="758" 
 />
    <glyph glyph-name="guillemotleft" unicode="&#xab;" horiz-adv-x="951" 
d="M72 743l385 394l88 -95l-315 -325l315 -324l-88 -77l-385 399v28zM381 742l385 395l88 -96l-315 -325l315 -324l-88 -76l-385 399v27z" />
    <glyph glyph-name="logicalnot" unicode="&#xac;" horiz-adv-x="1196" 
 />
    <glyph glyph-name="registered" unicode="&#xae;" horiz-adv-x="1509" 
 />
    <glyph glyph-name="macron" unicode="&#xaf;" horiz-adv-x="1131" 
 />
    <glyph glyph-name="degree" unicode="&#xb0;" horiz-adv-x="819" 
 />
    <glyph glyph-name="plusminus" unicode="&#xb1;" horiz-adv-x="1124" 
 />
    <glyph glyph-name="uni00B2" unicode="&#xb2;" horiz-adv-x="682" 
 />
    <glyph glyph-name="uni00B3" unicode="&#xb3;" horiz-adv-x="682" 
 />
    <glyph glyph-name="acute" unicode="&#xb4;" horiz-adv-x="596" 
d="M352 1850l140 -109l-292 -234l-84 99z" />
    <glyph glyph-name="mu" unicode="&#xb5;" horiz-adv-x="1180" 
 />
    <glyph glyph-name="paragraph" unicode="&#xb6;" horiz-adv-x="1100" 
 />
    <glyph glyph-name="periodcentered" unicode="&#xb7;" horiz-adv-x="569" 
 />
    <glyph glyph-name="periodcentered" unicode="&#x2219;" horiz-adv-x="569" 
 />
    <glyph glyph-name="cedilla" unicode="&#xb8;" horiz-adv-x="799" 
d="M260 -34l126 84c100 -101.333 150 -183.666 150 -246.999c0 -86.667 -92 -138.667 -276 -156l-37 93c190.667 15.333 203 90.666 37 225.999z" />
    <glyph glyph-name="uni00B9" unicode="&#xb9;" horiz-adv-x="682" 
 />
    <glyph glyph-name="ordmasculine" unicode="&#xba;" horiz-adv-x="748" 
 />
    <glyph glyph-name="guillemotright" unicode="&#xbb;" horiz-adv-x="951" 
d="M883 715l-385 -399l-88 77l315 324l-315 324l88 96l385 -394v-28zM574 714l-385 -398l-88 76l315 324l-315 325l88 95l385 -394v-28z" />
    <glyph glyph-name="onequarter" unicode="&#xbc;" horiz-adv-x="1708" 
 />
    <glyph glyph-name="onehalf" unicode="&#xbd;" horiz-adv-x="1708" 
 />
    <glyph glyph-name="threequarters" unicode="&#xbe;" horiz-adv-x="1708" 
 />
    <glyph glyph-name="questiondown" unicode="&#xbf;" horiz-adv-x="1019" 
d="M784 3l-626 0.000976562c-65.333 19.333 -98.333 59.666 -99 120.999l-2 312c16 50 41.333 94 76 132l174 167c44 42.667 66 104 66 184l1 120l291 -2l-1 -232c0 -45.333 -21.333 -89.666 -64 -132.999l-256 -254l-1 -74c-18 -50 27.333 -72 136 -66l129 -1
c63.333 -12.667 93.333 12.666 90 75.999l263 -3v-233c-22.667 -73.333 -81.667 -111.333 -177 -114zM659 1105h-282v250l285 4z" />
    <glyph glyph-name="Agrave" unicode="&#xc0;" horiz-adv-x="1306" 
d="M597 1460l246 -93l-29 -96h396l-41 -296l-216 -1l343 -919l-265 -91l-352 940l-393 -932l-269 82l388 924l-283 1l22 292h374zM724 440l153 -168l-283 -284l-154 166zM773 1606l-84 -99l-292 234l140 109z" />
    <glyph glyph-name="Aacute" unicode="&#xc1;" horiz-adv-x="1306" 
d="M594 1460l246 -93l-29 -96h396l-41 -296l-216 -1l343 -919l-265 -91l-352 940l-393 -932l-269 82l388 924l-283 1l22 292h374zM721 440l153 -168l-283 -284l-154 166zM849 1850l139 -109l-292 -234l-83 99z" />
    <glyph glyph-name="Acircumflex" unicode="&#xc2;" horiz-adv-x="1306" 
d="M594 1460l246 -93l-29 -96h396l-41 -296l-216 -1l343 -919l-265 -91l-352 940l-393 -932l-269 82l388 924l-283 1l22 292h374zM721 440l153 -168l-283 -284l-154 166zM922 1606l-83 -99l-153 122l-153 -122l-84 99l236 244l1 -1l1 1z" />
    <glyph glyph-name="Atilde" unicode="&#xc3;" horiz-adv-x="1306" 
d="M594 1460l246 -93l-29 -96h396l-41 -296l-216 -1l343 -919l-265 -91l-352 940l-393 -932l-269 82l388 924l-283 1l22 292h374zM721 440l153 -168l-283 -284l-154 166zM385 1508l-75 136.999c77.333 172.667 192 216.667 344 132c163.333 -99.333 263 -80 299 58l74 -137
c-84 -181.333 -203.667 -220.333 -359 -117c-144 88.667 -238.333 64.334 -283 -72.999z" />
    <glyph glyph-name="Adieresis" unicode="&#xc4;" horiz-adv-x="1306" 
d="M594 1460l246 -93l-29 -96h396l-41 -296l-216 -1l343 -919l-265 -91l-352 940l-393 -932l-269 82l388 924l-283 1l22 292h374zM721 440l153 -168l-283 -284l-154 166zM621 1547l-125 -25l-124 228l233 46zM724 1796l237 -51l-131 -227l-117 29z" />
    <glyph glyph-name="Aring" unicode="&#xc5;" horiz-adv-x="1366" 
 />
    <glyph glyph-name="AE" unicode="&#xc6;" horiz-adv-x="1472" 
d="M486 482l-214.001 -509.001l-269 81l388 924l-283 1l22 292h374l79 189l246 -93l-28 -94h642l-80 -302l-359 -2v-216h406l-48 -272l-365 1c-10 -40 -1.16699 -83.167 26.5 -129.5s73.834 -69.833 138.501 -70.5h240l-49 -282c-210 -6.66699 -338.5 2.33301 -385.5 27
s-96 65.834 -147 123.501s-83.167 142.5 -96.5 254.5v77h-238zM734.999 969.999l-45 -3l-89 -212l134 -1v216z" />
    <glyph glyph-name="Ccedilla" unicode="&#xc7;" horiz-adv-x="1247" 
d="M922 1357c177.333 -42 271.332 -173.668 281.999 -395.001h-265c-2.66699 70 -47.667 101.667 -135 95h-356c-73.333 -158.667 -111.833 -278.667 -115.5 -360s17.333 -157.833 63 -229.5s95.334 -122.667 149.001 -153s127.5 -40.833 221.5 -31.5s181 70 261 182
l179 -223c-104 -100.667 -188.333 -167.834 -253 -201.501s-150.167 -51.167 -256.5 -52.5s-203.5 19.334 -291.5 62.001s-168.667 121.834 -242 237.501s-106 247.5 -98 395.5s27.333 243 58 285l199 89h-238l16 95l23 91l44 114h755zM529.999 -34.001l126 84
c100 -101.333 150 -183.666 150 -246.999c0 -86.667 -92 -138.667 -276 -156l-37 93c190.667 15.333 203 90.666 37 225.999z" />
    <glyph glyph-name="Egrave" unicode="&#xc8;" horiz-adv-x="1163" 
d="M59 1352h989v-285l-571 -1v-159l452 -1l-32 -275h-420v-353l588 68l84 -302l-1042 -131l-32 302l118 20v394h-124l28 257l98 1l-1 116l161 59l-296 -1v291zM681 1606l-84 -99l-292 234l140 109z" />
    <glyph glyph-name="Eacute" unicode="&#xc9;" horiz-adv-x="1163" 
d="M59 1352h989v-285l-571 -1v-159l452 -1l-32 -275h-420v-353l588 68l84 -302l-1042 -131l-32 302l118 20v394h-124l28 257l98 1l-1 116l161 59l-296 -1v291zM713 1850l140 -109l-292 -233l-84 98z" />
    <glyph glyph-name="Ecircumflex" unicode="&#xca;" horiz-adv-x="1163" 
d="M59 1352h989v-285l-571 -1v-159l452 -1l-32 -275h-420v-353l588 68l84 -302l-1042 -131l-32 302l118 20v394h-124l28 257l98 1l-1 116l161 59l-296 -1v291zM837 1606l-83 -99l-153 123l-153 -123l-84 99l236 244l1 -1l1 1z" />
    <glyph glyph-name="Edieresis" unicode="&#xcb;" horiz-adv-x="1163" 
d="M59 1352h989v-285l-571 -1v-159l452 -1l-32 -275h-420v-353l588 68l84 -302l-1042 -131l-32 302l118 20v394h-124l28 257l98 1l-1 116l161 59l-296 -1v291zM556 1548l-125 -25l-124 227l233 46zM659 1797l237 -51l-131 -227l-117 29z" />
    <glyph glyph-name="Igrave" unicode="&#xcc;" horiz-adv-x="457" 
d="M386 1367l-1 -1366h-301l-1 1320zM342 1607l-84 -99l-292 233l140 109z" />
    <glyph glyph-name="Iacute" unicode="&#xcd;" horiz-adv-x="457" 
d="M385 1367l-1 -1366h-301l-1 1320zM384 1850l139 -109l-292 -234l-83 99z" />
    <glyph glyph-name="Icircumflex" unicode="&#xce;" horiz-adv-x="457" 
d="M385 1367l-1 -1366h-302v1320zM421 1606l-66 -99l-122 123l-123 -123l-67 99l189 244l1 -1v1z" />
    <glyph glyph-name="Idieresis" unicode="&#xcf;" horiz-adv-x="457" 
d="M385 1367v-1366h-302l-1 1320zM191 1548l-124 -25l-125 227l234 46zM294 1796l238 -51l-132 -227l-117 29z" />
    <glyph glyph-name="Eth" unicode="&#xd0;" horiz-adv-x="1479" 
 />
    <glyph glyph-name="Ntilde" unicode="&#xd1;" horiz-adv-x="1205" 
d="M52 1357h289.998l-1 -216l34 84c127.333 -34 221.5 -72.167 282.5 -114.5s124.167 -111.5 189.5 -207.5l14 -40l-1 492h288v-1122c4.66699 -51.333 -17.5 -105.833 -66.5 -163.5s-149.5 -82.5 -301.5 -74.5v283c66.667 5.33301 94.667 48.333 84 129
c0.666992 45.333 -9.16602 94.5 -29.499 147.5s-83.666 123.667 -189.999 212s-207.5 145.833 -303.5 172.5v-944h-291zM307.998 1507l-74.998 137.001c77.333 172.667 192 216.667 344 132c163.333 -98.667 262.666 -79.334 297.999 57.999l75 -136
c-84.667 -182 -204.334 -221.333 -359.001 -118c-144 89.333 -238.333 65 -283 -73z" />
    <glyph glyph-name="Ograve" unicode="&#xd2;" horiz-adv-x="1247" 
d="M342 1363l0.000976562 -130.999l78 131h660c81.333 -22.667 119.666 -137.334 114.999 -344.001v-901c-16 -73.333 -78.333 -111.666 -187 -114.999h-763c-113.333 -4.66699 -179 44.666 -197 147.999v1151zM342.001 1068v-770h558v770h-558zM752.001 1606l-84 -98
l-292 233l140 109z" />
    <glyph glyph-name="Oacute" unicode="&#xd3;" horiz-adv-x="1247" 
d="M342 1363l0.000976562 -130.999l78 131h660c81.333 -22.667 119.666 -137.334 114.999 -344.001v-901c-16 -73.333 -78.333 -111.666 -187 -114.999h-763c-113.333 -4.66699 -179 44.666 -197 147.999v1151zM342.001 1068v-770h558v770h-558zM802.001 1850l140 -109
l-292 -234l-84 99z" />
    <glyph glyph-name="Ocircumflex" unicode="&#xd4;" horiz-adv-x="1247" 
d="M342 1363l0.000976562 -130.999l78 131h660c81.333 -22.667 119.666 -137.334 114.999 -344.001v-901c-16 -73.333 -78.333 -111.666 -187 -114.999h-763c-113.333 -4.66699 -179 44.666 -197 147.999v1151zM342.001 1068v-770h558v770h-558zM870.001 1606l-83 -99
l-153 123l-153 -123l-84 99l236 244h1h1z" />
    <glyph glyph-name="Otilde" unicode="&#xd5;" horiz-adv-x="1247" 
d="M342 1363l0.000976562 -130.999l78 131h660c81.333 -22.667 119.666 -137.334 114.999 -344.001v-901c-16 -73.333 -78.333 -111.666 -187 -114.999h-763c-113.333 -4.66699 -179 44.666 -197 147.999v1151zM342.001 1068v-770h558v770h-558zM362.001 1507l-75 137.001
c76.667 172.667 191.334 216.667 344.001 132c162.667 -98.667 262 -79.334 298 57.999l75 -136c-84.667 -182 -204.334 -221.333 -359.001 -118c-144 89.333 -238.333 65 -283 -73z" />
    <glyph glyph-name="Odieresis" unicode="&#xd6;" horiz-adv-x="1247" 
d="M342 1363l0.000976562 -130.999l78 131h660c81.333 -22.667 119.666 -137.334 114.999 -344.001v-901c-16 -73.333 -78.333 -111.666 -187 -114.999h-763c-113.333 -4.66699 -179 44.666 -197 147.999v1151zM342.001 1068v-770h558v770h-558zM590.001 1548l-125 -25
l-124 227l233 46zM693.001 1797l237 -51l-131 -227l-117 29z" />
    <glyph glyph-name="multiply" unicode="&#xd7;" horiz-adv-x="1196" 
 />
    <glyph glyph-name="Oslash" unicode="&#xd8;" horiz-adv-x="1593" 
 />
    <glyph glyph-name="Ugrave" unicode="&#xd9;" horiz-adv-x="1243" 
d="M373 1376c-38 -350.667 -43.168 -585.667 -15.501 -705s71.834 -213.666 132.501 -282.999s198 -86 412 -50l-1 1024l290 -17v-1310l-290 -29v165l-52 -181l-63 -14c-187.333 -3.33301 -328.833 23 -424.5 79s-174.5 169.667 -236.5 341s-87.333 418.666 -76 741.999
l17 185zM748.999 1606l-84 -98l-292 233l140 109z" />
    <glyph glyph-name="Uacute" unicode="&#xda;" horiz-adv-x="1243" 
d="M373 1376c-38 -350.667 -43.168 -585.667 -15.501 -705s71.834 -213.666 132.501 -282.999s198 -86 412 -50l-1 1024l290 -17v-1310l-290 -29v165l-52 -181l-63 -14c-187.333 -3.33301 -328.833 23 -424.5 79s-174.5 169.667 -236.5 341s-87.333 418.666 -76 741.999
l17 185zM835.999 1850l140 -109l-292 -234l-84 99z" />
    <glyph glyph-name="Ucircumflex" unicode="&#xdb;" horiz-adv-x="1243" 
d="M373 1376c-38 -350.667 -43.168 -585.667 -15.501 -705s71.834 -213.666 132.501 -282.999s198 -86 412 -50l-1 1024l290 -17v-1310l-290 -29v165l-52 -181l-63 -14c-187.333 -3.33301 -328.833 23 -424.5 79s-174.5 169.667 -236.5 341s-87.333 418.666 -76 741.999
l17 185zM884.999 1606l-83 -99l-153 123l-153 -123l-84 99l236 244h1h1z" />
    <glyph glyph-name="Udieresis" unicode="&#xdc;" horiz-adv-x="1243" 
d="M373 1376c-38 -350.667 -43.168 -585.667 -15.501 -705s71.834 -213.666 132.501 -282.999s198 -86 412 -50l-1 1024l290 -17v-1310l-290 -29v165l-52 -181l-63 -14c-187.333 -3.33301 -328.833 23 -424.5 79s-174.5 169.667 -236.5 341s-87.333 418.666 -76 741.999
l17 185zM606.999 1548l-125 -25l-124 227l233 46zM709.999 1796l237 -51l-131 -227l-117 29z" />
    <glyph glyph-name="Yacute" unicode="&#xdd;" horiz-adv-x="1366" 
 />
    <glyph glyph-name="Thorn" unicode="&#xde;" horiz-adv-x="1366" 
 />
    <glyph glyph-name="germandbls" unicode="&#xdf;" horiz-adv-x="1157" 
d="M706 1076l-103.002 -2.00098c-167.333 -33.333 -251.333 -92.666 -252 -177.999l1 -932l-284 63l1 866c-1.33301 276.667 178.334 432.334 539.001 467.001l316 3l121 -280l-210 -326c174 -14.667 263.833 -112.5 269.5 -293.5s-18.166 -302.167 -71.499 -363.5
s-111.333 -99.333 -174 -114c-146.667 -34.667 -265 -29.334 -355 15.999l-1 303c141.333 -50.667 229.5 -64.5 264.5 -41.5s50.667 71.667 47 146s-96.167 111.833 -277.5 112.5l-84 209z" />
    <glyph glyph-name="agrave" unicode="&#xe0;" horiz-adv-x="1306" 
d="M597 1460l246 -93l-29 -96h396l-41 -296l-216 -1l343 -919l-265 -91l-352 940l-393 -932l-269 82l388 924l-283 1l22 292h374zM724 440l153 -168l-283 -284l-154 166zM773 1606l-84 -99l-292 234l140 109z" />
    <glyph glyph-name="aacute" unicode="&#xe1;" horiz-adv-x="1306" 
d="M594 1460l246 -93l-29 -96h396l-41 -296l-216 -1l343 -919l-265 -91l-352 940l-393 -932l-269 82l388 924l-283 1l22 292h374zM721 440l153 -168l-283 -284l-154 166zM849 1850l140 -109l-292 -234l-84 99z" />
    <glyph glyph-name="acircumflex" unicode="&#xe2;" horiz-adv-x="1306" 
d="M594 1460l246 -93l-29 -96h396l-41 -296l-216 -1l343 -919l-265 -91l-352 940l-393 -932l-269 82l388 924l-283 1l22 292h374zM721 440l153 -168l-283 -284l-154 166zM922 1606l-83 -99l-153 123l-153 -123l-84 99l236 244l1 -1l1 1z" />
    <glyph glyph-name="atilde" unicode="&#xe3;" horiz-adv-x="1306" 
d="M594 1460l246 -93l-29 -96h396l-41 -296l-216 -1l343 -919l-265 -91l-352 940l-393 -932l-269 82l388 924l-283 1l22 292h374zM721 440l153 -168l-283 -284l-154 166zM385 1508l-75 135.999c77.333 173.333 192 217.333 344 132c163.333 -98.667 263 -79 299 59l74 -137
c-84 -181.333 -203.667 -220.333 -359 -117c-144 88.667 -238.333 64.334 -283 -72.999z" />
    <glyph glyph-name="adieresis" unicode="&#xe4;" horiz-adv-x="1306" 
d="M594 1460l246 -93l-29 -96h396l-41 -296l-216 -1l343 -919l-265 -91l-352 940l-393 -932l-269 82l388 924l-283 1l22 292h374zM721 440l153 -168l-283 -284l-154 166zM621 1548l-124 -25l-125 227l234 46zM724 1796l238 -51l-132 -227l-117 29z" />
    <glyph glyph-name="aring" unicode="&#xe5;" 
 />
    <glyph glyph-name="ae" unicode="&#xe6;" horiz-adv-x="1472" 
d="M486 482l-214.001 -509.001l-269 81l388 924l-283 1l22 292h374l79 189l246 -93l-28 -94h642l-80 -302l-359 -2v-216h406l-48 -272l-365 1c-10 -40 -1.16699 -83.167 26.5 -129.5s73.834 -69.833 138.501 -70.5h240l-49 -282c-210 -6.66699 -338.5 2.33301 -385.5 27
s-96 65.834 -147 123.501s-83.167 142.5 -96.5 254.5v77h-238zM734.999 969.999l-45 -3l-89 -212l134 -1v216z" />
    <glyph glyph-name="ccedilla" unicode="&#xe7;" horiz-adv-x="1247" 
d="M922 1357c177.333 -42 271.332 -173.668 281.999 -395.001h-265c-2.66699 70 -47.667 101.667 -135 95h-356c-73.333 -158.667 -111.833 -278.667 -115.5 -360s17.333 -157.833 63 -229.5s95.334 -122.667 149.001 -153s127.5 -40.833 221.5 -31.5s181 70 261 182
l179 -223c-104 -100.667 -188.333 -167.834 -253 -201.501s-150.167 -51.167 -256.5 -52.5s-203.5 19.334 -291.5 62.001s-168.667 121.834 -242 237.501s-106 247.5 -98 395.5s27.333 243 58 285l199 89h-238l16 95l23 91l44 114h755zM529.999 -34.001l126 84
c100 -101.333 150 -183.666 150 -246.999c0 -86.667 -92 -138.667 -276 -156l-37 93c190.667 15.333 203 90.666 37 225.999z" />
    <glyph glyph-name="egrave" unicode="&#xe8;" horiz-adv-x="1163" 
d="M59 1352h989v-285l-571 -1v-159l452 -1l-32 -275h-420v-353l588 68l84 -302l-1042 -131l-32 302l118 20v394h-124l28 257l98 1l-1 116l161 59l-296 -1v291zM681 1606l-84 -99l-292 234l140 109z" />
    <glyph glyph-name="eacute" unicode="&#xe9;" horiz-adv-x="1163" 
d="M59 1352h989v-285l-571 -1v-159l452 -1l-32 -275h-420v-353l588 68l84 -302l-1042 -131l-32 302l118 20v394h-124l28 257l98 1l-1 116l161 59l-296 -1v291zM713 1850l140 -109l-292 -234l-84 99z" />
    <glyph glyph-name="ecircumflex" unicode="&#xea;" horiz-adv-x="1163" 
d="M59 1352h989v-285l-571 -1v-159l452 -1l-32 -275h-420v-353l588 68l84 -302l-1042 -131l-32 302l118 20v394h-124l28 257l98 1l-1 116l161 59l-296 -1v291zM837 1606l-83 -99l-153 123l-153 -123l-84 99l236 244l1 -1l1 1z" />
    <glyph glyph-name="edieresis" unicode="&#xeb;" horiz-adv-x="1163" 
d="M59 1352h989v-285l-571 -1v-159l452 -1l-32 -275h-420v-353l588 68l84 -302l-1042 -131l-32 302l118 20v394h-124l28 257l98 1l-1 116l161 59l-296 -1v291zM556 1548l-124 -25l-125 227l234 46zM659 1796l238 -51l-132 -227l-117 29z" />
    <glyph glyph-name="igrave" unicode="&#xec;" horiz-adv-x="457" 
d="M386 1367l-1 -1366h-301l-1 1320zM342 1606l-84 -99l-292 234l140 109z" />
    <glyph glyph-name="iacute" unicode="&#xed;" horiz-adv-x="457" 
d="M385 1367l-1 -1366h-301l-1 1320zM384 1850l140 -109l-292 -234l-84 99z" />
    <glyph glyph-name="icircumflex" unicode="&#xee;" horiz-adv-x="457" 
d="M385 1367l-1 -1366h-301l-1 1320zM421.793 1606l-66.3994 -99l-122.398 123l-122.397 -123l-67.1992 99l188.797 244l0.799805 -1l0.800781 1z" />
    <glyph glyph-name="idieresis" unicode="&#xef;" horiz-adv-x="457" 
d="M385 1367l-1 -1366h-301l-1 1320zM191 1548l-124 -25l-125 227l234 46zM294 1796l238 -51l-132 -227l-117 29z" />
    <glyph glyph-name="eth" unicode="&#xf0;" 
 />
    <glyph glyph-name="ntilde" unicode="&#xf1;" horiz-adv-x="1205" 
d="M52 1357h289.998l-1 -216l34 84c127.333 -34 221.5 -72.167 282.5 -114.5s124.167 -111.5 189.5 -207.5l14 -40l-1 492h288v-1122c4.66699 -51.333 -17.5 -105.833 -66.5 -163.5s-149.5 -82.5 -301.5 -74.5v283c66.667 5.33301 94.667 48.333 84 129
c0.666992 45.333 -9.16602 94.5 -29.499 147.5s-83.666 123.667 -189.999 212s-207.5 145.833 -303.5 172.5v-944h-291zM307.998 1508l-75 135.999c77.333 173.333 192 217.333 344 132c163.333 -98.667 263 -79 299 59l74 -137c-84 -181.333 -203.667 -220.333 -359 -117
c-144 88.667 -238.333 64.334 -283 -72.999z" />
    <glyph glyph-name="ograve" unicode="&#xf2;" horiz-adv-x="1247" 
d="M342 1363l0.000976562 -130.999l78 131h660c81.333 -22.667 119.666 -137.334 114.999 -344.001v-901c-16 -73.333 -78.333 -111.666 -187 -114.999h-763c-113.333 -4.66699 -179 44.666 -197 147.999v1151zM342.001 1068v-770h558v770h-558zM752.001 1606l-84 -99
l-292 234l140 109z" />
    <glyph glyph-name="oacute" unicode="&#xf3;" horiz-adv-x="1247" 
d="M342 1363l0.000976562 -130.999l78 131h660c81.333 -22.667 119.666 -137.334 114.999 -344.001v-901c-16 -73.333 -78.333 -111.666 -187 -114.999h-763c-113.333 -4.66699 -179 44.666 -197 147.999v1151zM342.001 1068v-770h558v770h-558zM802.001 1850l140 -109
l-292 -234l-84 99z" />
    <glyph glyph-name="ocircumflex" unicode="&#xf4;" horiz-adv-x="1247" 
d="M342 1363l0.000976562 -130.999l78 131h660c81.333 -22.667 119.666 -137.334 114.999 -344.001v-901c-16 -73.333 -78.333 -111.666 -187 -114.999h-763c-113.333 -4.66699 -179 44.666 -197 147.999v1151zM342.001 1068v-770h558v770h-558zM870.001 1606l-83 -99
l-153 123l-153 -123l-84 99l236 244l1 -1l1 1z" />
    <glyph glyph-name="otilde" unicode="&#xf5;" horiz-adv-x="1247" 
d="M342 1363l0.000976562 -130.999l78 131h660c81.333 -22.667 119.666 -137.334 114.999 -344.001v-901c-16 -73.333 -78.333 -111.666 -187 -114.999h-763c-113.333 -4.66699 -179 44.666 -197 147.999v1151zM342.001 1068v-770h558v770h-558zM362.001 1508l-75 135.999
c77.333 173.333 192 217.333 344 132c163.333 -98.667 263 -79 299 59l74 -137c-84 -181.333 -203.667 -220.333 -359 -117c-144 88.667 -238.333 64.334 -283 -72.999z" />
    <glyph glyph-name="odieresis" unicode="&#xf6;" horiz-adv-x="1247" 
d="M342 1363l0.000976562 -130.999l78 131h660c81.333 -22.667 119.666 -137.334 114.999 -344.001v-901c-16 -73.333 -78.333 -111.666 -187 -114.999h-763c-113.333 -4.66699 -179 44.666 -197 147.999v1151zM342.001 1068v-770h558v770h-558zM590.001 1548l-124 -25
l-125 227l234 46zM693.001 1796l238 -51l-132 -227l-117 29z" />
    <glyph glyph-name="divide" unicode="&#xf7;" horiz-adv-x="1124" 
 />
    <glyph glyph-name="oslash" unicode="&#xf8;" horiz-adv-x="1251" 
 />
    <glyph glyph-name="ugrave" unicode="&#xf9;" horiz-adv-x="1243" 
d="M373 1376c-38 -350.667 -43.168 -585.667 -15.501 -705s71.834 -213.666 132.501 -282.999s198 -86 412 -50l-1 1024l290 -17v-1310l-290 -29v165l-52 -181l-63 -14c-187.333 -3.33301 -328.833 23 -424.5 79s-174.5 169.667 -236.5 341s-87.333 418.666 -76 741.999
l17 185zM748.999 1606l-84 -99l-292 234l140 109z" />
    <glyph glyph-name="uacute" unicode="&#xfa;" horiz-adv-x="1243" 
d="M373 1376c-38 -350.667 -43.168 -585.667 -15.501 -705s71.834 -213.666 132.501 -282.999s198 -86 412 -50l-1 1024l290 -17v-1310l-290 -29v165l-52 -181l-63 -14c-187.333 -3.33301 -328.833 23 -424.5 79s-174.5 169.667 -236.5 341s-87.333 418.666 -76 741.999
l17 185zM835.999 1850l140 -109l-292 -234l-84 99z" />
    <glyph glyph-name="ucircumflex" unicode="&#xfb;" horiz-adv-x="1243" 
d="M373 1376c-38 -350.667 -43.168 -585.667 -15.501 -705s71.834 -213.666 132.501 -282.999s198 -86 412 -50l-1 1024l290 -17v-1310l-290 -29v165l-52 -181l-63 -14c-187.333 -3.33301 -328.833 23 -424.5 79s-174.5 169.667 -236.5 341s-87.333 418.666 -76 741.999
l17 185zM884.999 1606l-83 -99l-153 123l-153 -123l-84 99l236 244l1 -1l1 1z" />
    <glyph glyph-name="udieresis" unicode="&#xfc;" horiz-adv-x="1243" 
d="M373 1376c-38 -350.667 -43.168 -585.667 -15.501 -705s71.834 -213.666 132.501 -282.999s198 -86 412 -50l-1 1024l290 -17v-1310l-290 -29v165l-52 -181l-63 -14c-187.333 -3.33301 -328.833 23 -424.5 79s-174.5 169.667 -236.5 341s-87.333 418.666 -76 741.999
l17 185zM606.999 1548l-124 -25l-125 227l234 46zM709.999 1796l238 -51l-132 -227l-117 29z" />
    <glyph glyph-name="yacute" unicode="&#xfd;" horiz-adv-x="1024" 
 />
    <glyph glyph-name="thorn" unicode="&#xfe;" 
 />
    <glyph glyph-name="ydieresis" unicode="&#xff;" horiz-adv-x="1024" 
 />
    <glyph glyph-name="Amacron" unicode="&#x100;" horiz-adv-x="1366" 
 />
    <glyph glyph-name="amacron" unicode="&#x101;" 
 />
    <glyph glyph-name="Abreve" unicode="&#x102;" horiz-adv-x="1366" 
 />
    <glyph glyph-name="abreve" unicode="&#x103;" 
 />
    <glyph glyph-name="Aogonek" unicode="&#x104;" horiz-adv-x="1366" 
 />
    <glyph glyph-name="aogonek" unicode="&#x105;" 
 />
    <glyph glyph-name="Cacute" unicode="&#x106;" horiz-adv-x="1479" 
 />
    <glyph glyph-name="cacute" unicode="&#x107;" horiz-adv-x="1024" 
 />
    <glyph glyph-name="Ccircumflex" unicode="&#x108;" horiz-adv-x="1479" 
 />
    <glyph glyph-name="ccircumflex" unicode="&#x109;" horiz-adv-x="1024" 
 />
    <glyph glyph-name="Cdotaccent" unicode="&#x10a;" horiz-adv-x="1479" 
 />
    <glyph glyph-name="cdotaccent" unicode="&#x10b;" horiz-adv-x="1024" 
 />
    <glyph glyph-name="Ccaron" unicode="&#x10c;" horiz-adv-x="1479" 
 />
    <glyph glyph-name="ccaron" unicode="&#x10d;" horiz-adv-x="1024" 
 />
    <glyph glyph-name="Dcaron" unicode="&#x10e;" horiz-adv-x="1479" 
 />
    <glyph glyph-name="dcaron" unicode="&#x10f;" horiz-adv-x="1259" 
 />
    <glyph glyph-name="Dcroat" unicode="&#x110;" horiz-adv-x="1479" 
 />
    <glyph glyph-name="dcroat" unicode="&#x111;" 
 />
    <glyph glyph-name="Emacron" unicode="&#x112;" horiz-adv-x="1366" 
 />
    <glyph glyph-name="emacron" unicode="&#x113;" 
 />
    <glyph glyph-name="Ebreve" unicode="&#x114;" horiz-adv-x="1366" 
 />
    <glyph glyph-name="ebreve" unicode="&#x115;" 
 />
    <glyph glyph-name="Edotaccent" unicode="&#x116;" horiz-adv-x="1366" 
 />
    <glyph glyph-name="edotaccent" unicode="&#x117;" 
 />
    <glyph glyph-name="Eogonek" unicode="&#x118;" horiz-adv-x="1366" 
 />
    <glyph glyph-name="eogonek" unicode="&#x119;" 
 />
    <glyph glyph-name="Ecaron" unicode="&#x11a;" horiz-adv-x="1366" 
 />
    <glyph glyph-name="ecaron" unicode="&#x11b;" 
 />
    <glyph glyph-name="Gcircumflex" unicode="&#x11c;" horiz-adv-x="1593" 
 />
    <glyph glyph-name="gcircumflex" unicode="&#x11d;" 
 />
    <glyph glyph-name="Gbreve" unicode="&#x11e;" horiz-adv-x="1593" 
 />
    <glyph glyph-name="gbreve" unicode="&#x11f;" 
 />
    <glyph glyph-name="Gdotaccent" unicode="&#x120;" horiz-adv-x="1593" 
 />
    <glyph glyph-name="gdotaccent" unicode="&#x121;" 
 />
    <glyph glyph-name="uni0122" unicode="&#x122;" horiz-adv-x="1593" 
 />
    <glyph glyph-name="uni0123" unicode="&#x123;" 
 />
    <glyph glyph-name="Hcircumflex" unicode="&#x124;" horiz-adv-x="1479" 
 />
    <glyph glyph-name="hcircumflex" unicode="&#x125;" 
 />
    <glyph glyph-name="Hbar" unicode="&#x126;" horiz-adv-x="1479" 
 />
    <glyph glyph-name="hbar" unicode="&#x127;" 
 />
    <glyph glyph-name="Itilde" unicode="&#x128;" horiz-adv-x="569" 
 />
    <glyph glyph-name="itilde" unicode="&#x129;" horiz-adv-x="569" 
 />
    <glyph glyph-name="Imacron" unicode="&#x12a;" horiz-adv-x="569" 
 />
    <glyph glyph-name="imacron" unicode="&#x12b;" horiz-adv-x="569" 
 />
    <glyph glyph-name="Ibreve" unicode="&#x12c;" horiz-adv-x="569" 
 />
    <glyph glyph-name="ibreve" unicode="&#x12d;" horiz-adv-x="569" 
 />
    <glyph glyph-name="Iogonek" unicode="&#x12e;" horiz-adv-x="569" 
 />
    <glyph glyph-name="iogonek" unicode="&#x12f;" horiz-adv-x="455" 
 />
    <glyph glyph-name="Idotaccent" unicode="&#x130;" horiz-adv-x="569" 
 />
    <glyph glyph-name="dotlessi" unicode="&#x131;" horiz-adv-x="457" 
d="M385 1367l-1 -1366h-301l-1 1320z" />
    <glyph glyph-name="IJ" unicode="&#x132;" horiz-adv-x="1505" 
 />
    <glyph glyph-name="ij" unicode="&#x133;" horiz-adv-x="909" 
 />
    <glyph glyph-name="Jcircumflex" unicode="&#x134;" horiz-adv-x="1024" 
 />
    <glyph glyph-name="jcircumflex" unicode="&#x135;" horiz-adv-x="455" 
 />
    <glyph glyph-name="uni0136" unicode="&#x136;" horiz-adv-x="1366" 
 />
    <glyph glyph-name="uni0137" unicode="&#x137;" horiz-adv-x="1024" 
 />
    <glyph glyph-name="kgreenlandic" unicode="&#x138;" horiz-adv-x="1024" 
 />
    <glyph glyph-name="Lacute" unicode="&#x139;" 
 />
    <glyph glyph-name="lacute" unicode="&#x13a;" horiz-adv-x="455" 
 />
    <glyph glyph-name="uni013B" unicode="&#x13b;" 
 />
    <glyph glyph-name="uni013C" unicode="&#x13c;" horiz-adv-x="455" 
 />
    <glyph glyph-name="Lcaron" unicode="&#x13d;" 
 />
    <glyph glyph-name="lcaron" unicode="&#x13e;" horiz-adv-x="597" 
 />
    <glyph glyph-name="Ldot" unicode="&#x13f;" 
 />
    <glyph glyph-name="ldot" unicode="&#x140;" horiz-adv-x="684" 
 />
    <glyph glyph-name="Lslash" unicode="&#x141;" 
 />
    <glyph glyph-name="lslash" unicode="&#x142;" horiz-adv-x="455" 
 />
    <glyph glyph-name="Nacute" unicode="&#x143;" horiz-adv-x="1479" 
 />
    <glyph glyph-name="nacute" unicode="&#x144;" 
 />
    <glyph glyph-name="uni0145" unicode="&#x145;" horiz-adv-x="1479" 
 />
    <glyph glyph-name="uni0146" unicode="&#x146;" 
 />
    <glyph glyph-name="Ncaron" unicode="&#x147;" horiz-adv-x="1479" 
 />
    <glyph glyph-name="ncaron" unicode="&#x148;" 
 />
    <glyph glyph-name="napostrophe" unicode="&#x149;" horiz-adv-x="1237" 
 />
    <glyph glyph-name="Eng" unicode="&#x14a;" horiz-adv-x="1481" 
 />
    <glyph glyph-name="eng" unicode="&#x14b;" 
 />
    <glyph glyph-name="Omacron" unicode="&#x14c;" horiz-adv-x="1593" 
 />
    <glyph glyph-name="omacron" unicode="&#x14d;" 
 />
    <glyph glyph-name="Obreve" unicode="&#x14e;" horiz-adv-x="1593" 
 />
    <glyph glyph-name="obreve" unicode="&#x14f;" 
 />
    <glyph glyph-name="Ohungarumlaut" unicode="&#x150;" horiz-adv-x="1593" 
 />
    <glyph glyph-name="ohungarumlaut" unicode="&#x151;" 
 />
    <glyph glyph-name="OE" unicode="&#x152;" horiz-adv-x="1400" 
d="M340 1068v-770h287v770h-287zM813 120c8 -76 -32.334 -115 -121.001 -117h-449c-113.333 -3.33301 -179 46 -197 148v1151l294 61v-131l78 131h389c0.666992 0 1.33398 -0.333008 2.00098 -1l545 1l-80 -302l-342 -3v-149l389 1l-48 -272h-348
c-1.33301 -19.333 -2.33301 -37.666 -3 -54.999v-94c2.66699 -63.333 12.667 -108.666 30 -135.999c27.333 -46.667 73.333 -70.334 138 -71.001l222 1l-49 -283l-257 2c-92 9.33301 -156.333 48.666 -193 117.999z" />
    <glyph glyph-name="oe" unicode="&#x153;" horiz-adv-x="1400" 
d="M340 1068v-770h287v770h-287zM813 120c8 -76 -32.334 -115 -121.001 -117h-449c-113.333 -3.33301 -179 46 -197 148v1151l294 61v-131l78 131h389c0.666992 0 1.33398 -0.333008 2.00098 -1l545 1l-80 -302l-342 -3v-149l389 1l-48 -272h-348
c-1.33301 -19.333 -2.33301 -37.666 -3 -54.999v-94c2.66699 -63.333 12.667 -108.666 30 -135.999c27.333 -46.667 73.333 -70.334 138 -71.001l222 1l-49 -283l-257 2c-92 9.33301 -156.333 48.666 -193 117.999z" />
    <glyph glyph-name="Racute" unicode="&#x154;" horiz-adv-x="1479" 
 />
    <glyph glyph-name="racute" unicode="&#x155;" horiz-adv-x="682" 
 />
    <glyph glyph-name="uni0156" unicode="&#x156;" horiz-adv-x="1479" 
 />
    <glyph glyph-name="uni0157" unicode="&#x157;" horiz-adv-x="682" 
 />
    <glyph glyph-name="Rcaron" unicode="&#x158;" horiz-adv-x="1479" 
 />
    <glyph glyph-name="rcaron" unicode="&#x159;" horiz-adv-x="682" 
 />
    <glyph glyph-name="Sacute" unicode="&#x15a;" horiz-adv-x="1366" 
 />
    <glyph glyph-name="sacute" unicode="&#x15b;" horiz-adv-x="1024" 
 />
    <glyph glyph-name="Scircumflex" unicode="&#x15c;" horiz-adv-x="1366" 
 />
    <glyph glyph-name="scircumflex" unicode="&#x15d;" horiz-adv-x="1024" 
 />
    <glyph glyph-name="Scedilla" unicode="&#x15e;" horiz-adv-x="1366" 
 />
    <glyph glyph-name="scedilla" unicode="&#x15f;" horiz-adv-x="1024" 
 />
    <glyph glyph-name="Scaron" unicode="&#x160;" horiz-adv-x="1366" 
 />
    <glyph glyph-name="scaron" unicode="&#x161;" horiz-adv-x="1024" 
 />
    <glyph glyph-name="uni0162" unicode="&#x162;" horiz-adv-x="1251" 
 />
    <glyph glyph-name="uni0163" unicode="&#x163;" horiz-adv-x="569" 
 />
    <glyph glyph-name="Tcaron" unicode="&#x164;" horiz-adv-x="1251" 
 />
    <glyph glyph-name="tcaron" unicode="&#x165;" horiz-adv-x="768" 
 />
    <glyph glyph-name="Tbar" unicode="&#x166;" horiz-adv-x="1251" 
 />
    <glyph glyph-name="tbar" unicode="&#x167;" horiz-adv-x="569" 
 />
    <glyph glyph-name="Utilde" unicode="&#x168;" horiz-adv-x="1479" 
 />
    <glyph glyph-name="utilde" unicode="&#x169;" 
 />
    <glyph glyph-name="Umacron" unicode="&#x16a;" horiz-adv-x="1479" 
 />
    <glyph glyph-name="umacron" unicode="&#x16b;" 
 />
    <glyph glyph-name="Ubreve" unicode="&#x16c;" horiz-adv-x="1479" 
 />
    <glyph glyph-name="ubreve" unicode="&#x16d;" 
 />
    <glyph glyph-name="Uring" unicode="&#x16e;" horiz-adv-x="1479" 
 />
    <glyph glyph-name="uring" unicode="&#x16f;" 
 />
    <glyph glyph-name="Uhungarumlaut" unicode="&#x170;" horiz-adv-x="1479" 
 />
    <glyph glyph-name="uhungarumlaut" unicode="&#x171;" 
 />
    <glyph glyph-name="Uogonek" unicode="&#x172;" horiz-adv-x="1479" 
 />
    <glyph glyph-name="uogonek" unicode="&#x173;" 
 />
    <glyph glyph-name="Wcircumflex" unicode="&#x174;" horiz-adv-x="1933" 
 />
    <glyph glyph-name="wcircumflex" unicode="&#x175;" horiz-adv-x="1479" 
 />
    <glyph glyph-name="Ycircumflex" unicode="&#x176;" horiz-adv-x="1366" 
 />
    <glyph glyph-name="ycircumflex" unicode="&#x177;" horiz-adv-x="1024" 
 />
    <glyph glyph-name="Ydieresis" unicode="&#x178;" horiz-adv-x="1366" 
 />
    <glyph glyph-name="Zacute" unicode="&#x179;" horiz-adv-x="1251" 
 />
    <glyph glyph-name="zacute" unicode="&#x17a;" horiz-adv-x="1024" 
 />
    <glyph glyph-name="Zdotaccent" unicode="&#x17b;" horiz-adv-x="1251" 
 />
    <glyph glyph-name="zdotaccent" unicode="&#x17c;" horiz-adv-x="1024" 
 />
    <glyph glyph-name="Zcaron" unicode="&#x17d;" horiz-adv-x="1251" 
 />
    <glyph glyph-name="zcaron" unicode="&#x17e;" horiz-adv-x="1024" 
 />
    <glyph glyph-name="longs" unicode="&#x17f;" horiz-adv-x="455" 
 />
    <glyph glyph-name="florin" unicode="&#x192;" 
 />
    <glyph glyph-name="Aringacute" unicode="&#x1fa;" horiz-adv-x="1366" 
 />
    <glyph glyph-name="aringacute" unicode="&#x1fb;" 
 />
    <glyph glyph-name="AEacute" unicode="&#x1fc;" horiz-adv-x="2048" 
 />
    <glyph glyph-name="aeacute" unicode="&#x1fd;" horiz-adv-x="1821" 
 />
    <glyph glyph-name="Oslashacute" unicode="&#x1fe;" horiz-adv-x="1593" 
 />
    <glyph glyph-name="oslashacute" unicode="&#x1ff;" horiz-adv-x="1251" 
 />
    <glyph glyph-name="circumflex" unicode="&#x2c6;" horiz-adv-x="702" 
d="M601 1606l-83 -99l-153 123l-153 -123l-84 99l236 244l1 -1l1 1z" />
    <glyph glyph-name="caron" unicode="&#x2c7;" horiz-adv-x="682" 
 />
    <glyph glyph-name="uni02C9" unicode="&#x2c9;" horiz-adv-x="682" 
 />
    <glyph glyph-name="breve" unicode="&#x2d8;" horiz-adv-x="682" 
 />
    <glyph glyph-name="dotaccent" unicode="&#x2d9;" horiz-adv-x="682" 
 />
    <glyph glyph-name="ring" unicode="&#x2da;" horiz-adv-x="682" 
 />
    <glyph glyph-name="ogonek" unicode="&#x2db;" horiz-adv-x="682" 
 />
    <glyph glyph-name="tilde" unicode="&#x2dc;" horiz-adv-x="731" 
d="M77 1508l-75 135.999c77.333 173.333 192 217.333 344 132c163.333 -98.667 263 -79 299 59l74 -137c-84 -181.333 -203.667 -220.333 -359 -117c-144 88.667 -238.333 64.334 -283 -72.999z" />
    <glyph glyph-name="hungarumlaut" unicode="&#x2dd;" horiz-adv-x="682" 
 />
    <glyph glyph-name="tonos" unicode="&#x384;" horiz-adv-x="682" 
 />
    <glyph glyph-name="dieresistonos" unicode="&#x385;" horiz-adv-x="682" 
 />
    <glyph glyph-name="Alphatonos" unicode="&#x386;" horiz-adv-x="1367" 
 />
    <glyph glyph-name="anoteleia" unicode="&#x387;" horiz-adv-x="569" 
 />
    <glyph glyph-name="Epsilontonos" unicode="&#x388;" horiz-adv-x="1606" 
 />
    <glyph glyph-name="Etatonos" unicode="&#x389;" horiz-adv-x="1716" 
 />
    <glyph glyph-name="Iotatonos" unicode="&#x38a;" horiz-adv-x="786" 
 />
    <glyph glyph-name="Omicrontonos" unicode="&#x38c;" horiz-adv-x="1586" 
 />
    <glyph glyph-name="Upsilontonos" unicode="&#x38e;" horiz-adv-x="1752" 
 />
    <glyph glyph-name="Omegatonos" unicode="&#x38f;" horiz-adv-x="1541" 
 />
    <glyph glyph-name="iotadieresistonos" unicode="&#x390;" horiz-adv-x="455" 
 />
    <glyph glyph-name="Alpha" unicode="&#x391;" horiz-adv-x="1366" 
 />
    <glyph glyph-name="Beta" unicode="&#x392;" horiz-adv-x="1366" 
 />
    <glyph glyph-name="Gamma" unicode="&#x393;" horiz-adv-x="1128" 
 />
    <glyph glyph-name="uni0394" unicode="&#x394;" horiz-adv-x="1368" 
 />
    <glyph glyph-name="Epsilon" unicode="&#x395;" horiz-adv-x="1366" 
 />
    <glyph glyph-name="Zeta" unicode="&#x396;" horiz-adv-x="1251" 
 />
    <glyph glyph-name="Eta" unicode="&#x397;" horiz-adv-x="1479" 
 />
    <glyph glyph-name="Theta" unicode="&#x398;" horiz-adv-x="1593" 
 />
    <glyph glyph-name="Iota" unicode="&#x399;" horiz-adv-x="569" 
 />
    <glyph glyph-name="Kappa" unicode="&#x39a;" horiz-adv-x="1366" 
 />
    <glyph glyph-name="Lambda" unicode="&#x39b;" horiz-adv-x="1368" 
 />
    <glyph glyph-name="Mu" unicode="&#x39c;" horiz-adv-x="1706" 
 />
    <glyph glyph-name="Nu" unicode="&#x39d;" horiz-adv-x="1479" 
 />
    <glyph glyph-name="Xi" unicode="&#x39e;" horiz-adv-x="1331" 
 />
    <glyph glyph-name="Omicron" unicode="&#x39f;" horiz-adv-x="1593" 
 />
    <glyph glyph-name="Pi" unicode="&#x3a0;" horiz-adv-x="1479" 
 />
    <glyph glyph-name="Rho" unicode="&#x3a1;" horiz-adv-x="1366" 
 />
    <glyph glyph-name="Sigma" unicode="&#x3a3;" horiz-adv-x="1266" 
 />
    <glyph glyph-name="Tau" unicode="&#x3a4;" horiz-adv-x="1251" 
 />
    <glyph glyph-name="Upsilon" unicode="&#x3a5;" horiz-adv-x="1366" 
 />
    <glyph glyph-name="Phi" unicode="&#x3a6;" horiz-adv-x="1634" 
 />
    <glyph glyph-name="Chi" unicode="&#x3a7;" horiz-adv-x="1366" 
 />
    <glyph glyph-name="Psi" unicode="&#x3a8;" horiz-adv-x="1711" 
 />
    <glyph glyph-name="uni03A9" unicode="&#x3a9;" horiz-adv-x="1531" 
 />
    <glyph glyph-name="Iotadieresis" unicode="&#x3aa;" horiz-adv-x="569" 
 />
    <glyph glyph-name="Upsilondieresis" unicode="&#x3ab;" horiz-adv-x="1366" 
 />
    <glyph glyph-name="alphatonos" unicode="&#x3ac;" horiz-adv-x="1184" 
 />
    <glyph glyph-name="epsilontonos" unicode="&#x3ad;" horiz-adv-x="913" 
 />
    <glyph glyph-name="etatonos" unicode="&#x3ae;" 
 />
    <glyph glyph-name="iotatonos" unicode="&#x3af;" horiz-adv-x="455" 
 />
    <glyph glyph-name="upsilondieresistonos" unicode="&#x3b0;" horiz-adv-x="1120" 
 />
    <glyph glyph-name="alpha" unicode="&#x3b1;" horiz-adv-x="1184" 
 />
    <glyph glyph-name="beta" unicode="&#x3b2;" horiz-adv-x="1178" 
 />
    <glyph glyph-name="gamma" unicode="&#x3b3;" horiz-adv-x="1024" 
 />
    <glyph glyph-name="delta" unicode="&#x3b4;" horiz-adv-x="1140" 
 />
    <glyph glyph-name="epsilon" unicode="&#x3b5;" horiz-adv-x="913" 
 />
    <glyph glyph-name="zeta" unicode="&#x3b6;" horiz-adv-x="903" 
 />
    <glyph glyph-name="eta" unicode="&#x3b7;" 
 />
    <glyph glyph-name="theta" unicode="&#x3b8;" 
 />
    <glyph glyph-name="iota" unicode="&#x3b9;" horiz-adv-x="455" 
 />
    <glyph glyph-name="kappa" unicode="&#x3ba;" horiz-adv-x="1024" 
 />
    <glyph glyph-name="lambda" unicode="&#x3bb;" horiz-adv-x="1024" 
 />
    <glyph glyph-name="uni03BC" unicode="&#x3bc;" horiz-adv-x="1180" 
 />
    <glyph glyph-name="nu" unicode="&#x3bd;" horiz-adv-x="1024" 
 />
    <glyph glyph-name="xi" unicode="&#x3be;" horiz-adv-x="917" 
 />
    <glyph glyph-name="omicron" unicode="&#x3bf;" 
 />
    <glyph glyph-name="pi" unicode="&#x3c0;" horiz-adv-x="1413" 
 />
    <glyph glyph-name="rho" unicode="&#x3c1;" horiz-adv-x="1165" 
 />
    <glyph glyph-name="sigma1" unicode="&#x3c2;" horiz-adv-x="987" 
 />
    <glyph glyph-name="sigma" unicode="&#x3c3;" horiz-adv-x="1264" 
 />
    <glyph glyph-name="tau" unicode="&#x3c4;" horiz-adv-x="809" 
 />
    <glyph glyph-name="upsilon" unicode="&#x3c5;" horiz-adv-x="1120" 
 />
    <glyph glyph-name="phi" unicode="&#x3c6;" horiz-adv-x="1328" 
 />
    <glyph glyph-name="chi" unicode="&#x3c7;" horiz-adv-x="1075" 
 />
    <glyph glyph-name="psi" unicode="&#x3c8;" horiz-adv-x="1460" 
 />
    <glyph glyph-name="omega" unicode="&#x3c9;" horiz-adv-x="1599" 
 />
    <glyph glyph-name="iotadieresis" unicode="&#x3ca;" horiz-adv-x="455" 
 />
    <glyph glyph-name="upsilondieresis" unicode="&#x3cb;" horiz-adv-x="1120" 
 />
    <glyph glyph-name="omicrontonos" unicode="&#x3cc;" 
 />
    <glyph glyph-name="upsilontonos" unicode="&#x3cd;" horiz-adv-x="1120" 
 />
    <glyph glyph-name="omegatonos" unicode="&#x3ce;" horiz-adv-x="1599" 
 />
    <glyph glyph-name="uni0401" unicode="&#x401;" horiz-adv-x="1163" 
d="M59 1352h989v-285l-571 -1v-159l452 -1l-32 -275h-420v-353l588 68l84 -302l-1042 -131l-32 302l118 20v394h-124l28 257l98 1l-1 116l161 59l-296 -1v291zM556 1548l-124 -25l-125 227l234 46zM659 1796l238 -51l-132 -227l-117 29z" />
    <glyph glyph-name="uni0402" unicode="&#x402;" horiz-adv-x="1771" 
 />
    <glyph glyph-name="uni0403" unicode="&#x403;" horiz-adv-x="1109" 
 />
    <glyph glyph-name="uni0404" unicode="&#x404;" horiz-adv-x="1247" 
d="M355 550c10 -28 23.666 -55.334 40.999 -82.001c45.333 -72 94.833 -123.167 148.5 -153.5s127.5 -40.833 221.5 -31.5s181 70 261 182l179 -223c-104 -100.667 -188.333 -167.834 -253 -201.501s-150.167 -51.167 -256.5 -52.5s-203.5 19.334 -291.5 62.001
s-168.667 121.834 -242 237.501s-106 247.5 -98 395.5s27.333 243 58 285l199 89h-238l16 95l23 91l44 114h755c177.333 -42 271.333 -173.667 282 -395h-265c-2.66699 70 -47.667 101.667 -135 95h-356c-41.333 -89.333 -71.666 -166.333 -90.999 -231l429 -1l-32 -275
h-399z" />
    <glyph glyph-name="uni0405" unicode="&#x405;" horiz-adv-x="1366" 
 />
    <glyph glyph-name="uni0406" unicode="&#x406;" horiz-adv-x="698" 
d="M85 1360h545l-40 -288h-88v-795h112l-16 -279h-545l27 281l117 -1l2 723l126 71h-269z" />
    <glyph glyph-name="uni0407" unicode="&#x407;" horiz-adv-x="698" 
d="M85 1360h545l-40 -288h-88v-795h112l-16 -279h-545l27 281l117 -1l2 723l126 71h-269zM300 1548l-124 -25l-125 227l234 46zM403 1796l238 -51l-132 -227l-117 29z" />
    <glyph glyph-name="uni0408" unicode="&#x408;" horiz-adv-x="1024" 
 />
    <glyph glyph-name="uni0409" unicode="&#x409;" horiz-adv-x="2165" 
 />
    <glyph glyph-name="uni040A" unicode="&#x40a;" horiz-adv-x="2069" 
 />
    <glyph glyph-name="uni040B" unicode="&#x40b;" horiz-adv-x="1749" 
 />
    <glyph glyph-name="uni040C" unicode="&#x40c;" horiz-adv-x="1193" 
 />
    <glyph glyph-name="uni040E" unicode="&#x40e;" horiz-adv-x="1083" 
d="M220 1357l380 -745c69.333 70 117.5 163.5 144.5 280.5s34.167 258.5 21.5 424.5l278 -11c-3.33301 -353.333 -41.166 -600.166 -113.499 -740.499s-161.333 -266.333 -267 -378s-232.834 -214.834 -381.501 -309.501l-119 282l257 210l-417 803zM319 1732l472 1
l-45 -258h-472z" />
    <glyph glyph-name="uni040F" unicode="&#x40f;" horiz-adv-x="1472" 
 />
    <glyph glyph-name="uni0410" unicode="&#x410;" horiz-adv-x="1306" 
d="M594 1460l246 -93l-29 -96h396l-41 -296l-216 -1l343 -919l-265 -91l-352 940l-393 -932l-269 82l388 924l-283 1l22 292h374zM721 440l153 -168l-283 -284l-154 166z" />
    <glyph glyph-name="uni0411" unicode="&#x411;" horiz-adv-x="1150" 
d="M432 1072l0.000976562 -230.999l429 -1c140 5.33301 218 -44.667 234 -150v-436c-7.33301 -78 -32.833 -138.5 -76.5 -181.5s-96.834 -71.833 -159.501 -86.5c-146.667 -34.667 -298.667 -19.334 -456 45.999l100 251c141.333 -44.667 229.5 -55.5 264.5 -32.5
s49.167 138.167 42.5 345.5l-378 -2v-246c-35.333 -255.333 -156 -371 -362 -347v253c62 -0.666992 88 52 78 158v173h-80l1 255l102 -2v237h-106l36 284h889l-64 -287h-494z" />
    <glyph glyph-name="uni0412" unicode="&#x412;" horiz-adv-x="1150" 
d="M101 1359l624 0.000976562c134 -7.33301 215.333 -39 244 -95s40.334 -116 35.001 -180s-53 -145.333 -143 -244c140 5.33301 218 -44.667 234 -150v-436c-7.33301 -78 -32.833 -138.5 -76.5 -181.5s-96.834 -71.833 -159.501 -86.5
c-146.667 -34.667 -298.667 -19.334 -456 45.999l100 251c141.333 -44.667 229.5 -55.5 264.5 -32.5s49.167 138.167 42.5 345.5l-378 -2v-246c-35.333 -255.333 -156 -371 -362 -347v253c62 -0.666992 88 52 78 158v173h-80l1 255l102 -2v237h-106zM432 1075v-224l129 28
c90.667 48.667 132 114 124 196h-253z" />
    <glyph glyph-name="uni0413" unicode="&#x413;" horiz-adv-x="1036" 
d="M99 1360h891l-64 -287h-462l-3 -1036l-300 -63v1032l145 67h-256z" />
    <glyph glyph-name="uni0414" unicode="&#x414;" horiz-adv-x="1619" 
d="M551 296h535c8.66699 139.333 -5 268 -41 386s-115 226.333 -237 325zM391 0v-246.999l-303 46l1 486h135l418 1235l305 -115l-68 -191l144 55c112 -134 196 -256.833 252 -368.5s96.667 -251.167 122 -418.5c10 -66.667 15 -132.334 15 -197.001h149l1 -532l-303 46v201
h-868z" />
    <glyph glyph-name="uni0415" unicode="&#x415;" horiz-adv-x="1163" 
d="M59 1352h989v-285l-571 -1v-159l452 -1l-32 -275h-420v-353l588 68l84 -302l-1042 -131l-32 302l118 20v394h-124l28 257l98 1l-1 116l161 59l-296 -1v291z" />
    <glyph glyph-name="uni0416" unicode="&#x416;" horiz-adv-x="1967" 
d="M1127 869l522.004 522l207 -207l-444 -447c149.333 -271.333 245.166 -411 287.499 -419s92.833 12.667 151.5 62l109 -269c-72.667 -78 -141.834 -120.5 -207.501 -127.5s-131.5 1.5 -197.5 25.5s-188.333 203.333 -367 538l-61 -66v-482h-285v482l-61 66
c-178.667 -334.667 -301 -514 -367 -538s-131.833 -32.5 -197.5 -25.5s-134.834 49.5 -207.501 127.5l109 269c58.667 -49.333 109.167 -70 151.5 -62s138.166 147.667 287.499 419l-444 447l207 207l522 -522l1 491h284v-491z" />
    <glyph glyph-name="uni0417" unicode="&#x417;" horiz-adv-x="1107" 
d="M1069 1065l-176.001 1v-221l135 1l41 -274l-165 1v-168c-13.333 -112 -45.5 -196.833 -96.5 -254.5s-100 -99 -147 -124s-217.5 -34.167 -511.5 -27.5l-49 283h366c64.667 0.666992 110.834 24.167 138.501 70.5s36.5 119.833 26.5 220.5l-283 -1l-48 272h324v214l-486 2
l-80 302h963z" />
    <glyph glyph-name="uni0418" unicode="&#x418;" horiz-adv-x="1205" 
d="M860 1150l0.000976562 205.001h288v-1122c4.66699 -51.333 -17.5 -105.833 -66.5 -163.5s-149.5 -82.5 -301.5 -74.5v283c66.667 5.33301 94.667 48.333 84 129v13l-3 443v75c-95.333 -26.667 -195.333 -83.667 -300 -171
c-106.667 -88.667 -170.334 -159.334 -191.001 -212.001c-18 -48.667 -27.667 -93.667 -29 -135v-425h-291l2 1362h290l-1 -216v-278l17 40c65.333 96 128.5 165.167 189.5 207.5s155.167 80.5 282.5 114.5z" />
    <glyph glyph-name="uni0419" unicode="&#x419;" horiz-adv-x="1205" 
d="M860 1150l0.000976562 205.001h288v-1122c4.66699 -51.333 -17.5 -105.833 -66.5 -163.5s-149.5 -82.5 -301.5 -74.5v283c66.667 5.33301 94.667 48.333 84 129v13l-3 443v75c-95.333 -26.667 -195.333 -83.667 -300 -171
c-106.667 -88.667 -170.334 -159.334 -191.001 -212.001c-18 -48.667 -27.667 -93.667 -29 -135v-425h-291l2 1362h290l-1 -216v-278l17 40c65.333 96 128.5 165.167 189.5 207.5s155.167 80.5 282.5 114.5zM387.001 1732l472 1l-45 -258h-472z" />
    <glyph glyph-name="uni041A" unicode="&#x41a;" horiz-adv-x="1171" 
d="M859 1391l207.002 -207l-444 -447c149.333 -271.333 245.166 -411 287.499 -419s92.833 12.667 151.5 62l109 -269c-72.667 -78 -141.834 -120.5 -207.501 -127.5s-131.5 1.5 -197.5 25.5s-188.333 203.333 -367 538l-61 -66v-482h-285v1361h284l1 -491z" />
    <glyph glyph-name="uni041B" unicode="&#x41b;" horiz-adv-x="1303" 
d="M3 64l493 1456l305 -115l-68 -191l144 55c112 -134 196 -256.833 252 -368.5s96.667 -251.334 122 -419.001s19 -328.167 -19 -481.5h-405l-33 297l146 -1c8.66699 139.333 -5 268 -41 386s-115 226.333 -237 325l-364 -1023z" />
    <glyph glyph-name="uni041C" unicode="&#x41c;" horiz-adv-x="1502" 
d="M108 1343l257 109l393 -932l352 940l14 -5l326 -88l-1 -1366h-318l-2 710l-97 -261l-139 -297l29 -96l-246 -93l-79 189l-113 293l-122 291v-736h-304l-1 1320z" />
    <glyph glyph-name="uni041D" unicode="&#x41d;" horiz-adv-x="1193" 
d="M56 1356h302v-464l440 3v457l302 2v-471h52l24 -275h-76v-440c-20 -60 -45 -99.833 -75 -119.5s-76.833 -34.667 -140.5 -45s-127.5 -15.5 -191.5 -15.5l-2 264c61.333 4 99.333 29.333 114 76v279l-367 1l-80 127v-715l-300 -51z" />
    <glyph glyph-name="uni041E" unicode="&#x41e;" horiz-adv-x="1247" 
d="M342 1363l0.000976562 -130.999l78 131h660c81.333 -22.667 119.666 -137.334 114.999 -344.001v-901c-16 -73.333 -78.333 -111.666 -187 -114.999h-763c-113.333 -4.66699 -179 44.666 -197 147.999v1151zM342.001 1068v-770h558v770h-558z" />
    <glyph glyph-name="uni041F" unicode="&#x41f;" horiz-adv-x="1193" 
d="M1152 1356l24 -275h-76v-913c-20 -60 -45 -99.833 -75 -119.5s-76.833 -34.667 -140.5 -45s-127.5 -15.5 -191.5 -15.5l-2 264c61.333 4 99.333 29.333 114 76v279l-7 288v176l-360 1l-80 127v-1179l-300 -51l-2 1387h1096z" />
    <glyph glyph-name="uni0420" unicode="&#x420;" horiz-adv-x="1145" 
d="M933 1356c101.333 -18.667 153.667 -86.001 157 -202.001l-2 -508c-9.33301 -104 -64.333 -155 -165 -153h-411l-96 172v-454c-16 -101.333 -50.333 -164.166 -103 -188.499s-136.667 -35.833 -252 -34.5l-1 263c48 -11.333 69.667 55.667 65 201v531l156 87l-235 1
l59 285h828zM408.001 1070l1 -258l379 -1v259h-380z" />
    <glyph glyph-name="uni0421" unicode="&#x421;" horiz-adv-x="1247" 
d="M922 1357c177.333 -42 271.332 -173.668 281.999 -395.001h-265c-2.66699 70 -47.667 101.667 -135 95h-356c-73.333 -158.667 -111.833 -278.667 -115.5 -360s17.333 -157.833 63 -229.5s95.334 -122.667 149.001 -153s127.5 -40.833 221.5 -31.5s181 70 261 182
l179 -223c-104 -100.667 -188.333 -167.834 -253 -201.501s-150.167 -51.167 -256.5 -52.5s-203.5 19.334 -291.5 62.001s-168.667 121.834 -242 237.501s-106 247.5 -98 395.5s27.333 243 58 285l199 89h-238l16 95l23 91l44 114h755z" />
    <glyph glyph-name="uni0422" unicode="&#x422;" horiz-adv-x="1015" 
d="M70 1360l908 0.000976562l-37 -300h-323v-649c-11.333 -100.667 22.667 -160.334 102 -179.001l-73 -282c-91.333 -2.66699 -168.5 27 -231.5 89s-95.5 144 -97.5 246v715l129 62l-407 1z" />
    <glyph glyph-name="uni0423" unicode="&#x423;" horiz-adv-x="1083" 
d="M220 1357l380 -745c69.333 70 117.5 163.5 144.5 280.5s34.167 258.5 21.5 424.5l278 -11c-3.33301 -353.333 -41.166 -600.166 -113.499 -740.499s-161.333 -266.333 -267 -378s-232.834 -214.834 -381.501 -309.501l-119 282l257 210l-417 803z" />
    <glyph glyph-name="uni0424" unicode="&#x424;" horiz-adv-x="1478" 
d="M591 151c-140 -0.666992 -234 9.66602 -282 30.999s-97.5 60.833 -148.5 118.5s-83.167 142.5 -96.5 254.5v657h526v126l303 46v-172h526v-657c-13.333 -112 -45.5 -196.833 -96.5 -254.5s-100.5 -97.167 -148.5 -118.5s-142 -31.666 -282 -30.999v-150h-301v150z
M893 918l-1.00098 -486h89c64.667 0.666992 107.834 24.167 129.501 70.5s31.167 89.833 28.5 130.5v285h-246zM589.999 918h-246.001v-285c-2.66699 -40.667 6.83301 -84.167 28.5 -130.5s64.834 -69.833 129.501 -70.5h89z" />
    <glyph glyph-name="uni0425" unicode="&#x425;" horiz-adv-x="1260" 
d="M266 1398l433.999 -586c117.333 168.667 210.333 355 279 559l279 -112c-88.667 -232 -217.667 -456 -387 -672l363 -487l-252 -201l-317 433c-63.333 -75.333 -127.833 -141 -193.5 -197s-154.5 -115 -266.5 -177l-206 218c228.667 150 397.334 281.667 506.001 395
l-479 639z" />
    <glyph glyph-name="uni0426" unicode="&#x426;" horiz-adv-x="1299" 
d="M948 0h-892l2 1387l300 -51v-1179l86 128h354v1071h302v-1071h150l1 -532l-303 46v201z" />
    <glyph glyph-name="uni0427" unicode="&#x427;" horiz-adv-x="1194" 
d="M826 601l-52.002 -179.001l-63 -14c-121.333 -3.33301 -229.833 7 -325.5 31s-174.5 98.833 -236.5 224.5s-87.333 283.834 -76 474.501l17 185l307 53c-38 -218 -43.167 -363.833 -15.5 -437.5s71.834 -129.167 132.501 -166.5s164.334 -38 311.001 -2v551l303 46
l-1 -1366h-301v600z" />
    <glyph glyph-name="uni0428" unicode="&#x428;" horiz-adv-x="1778" 
d="M56 0l2 1387l300 -51v-1179l86 128h254v1071h302v-1071h340v1071h302v-1081h76l-24 -275h-1638z" />
    <glyph glyph-name="uni0429" unicode="&#x429;" horiz-adv-x="1860" 
d="M1490 0h-1434l2 1387l300 -51v-1179l86 128h254v1071h302v-1071h340v1071h302v-1071h150l1 -532l-303 46v201z" />
    <glyph glyph-name="uni042A" unicode="&#x42a;" horiz-adv-x="1258" 
d="M884 286v259l-379 -1l-1 -258h380zM156 1356c116 2 200.332 -7.33203 252.999 -27.999s87 -81.667 103 -183v-454l96 172h411c100.667 2 155.667 -49 165 -153l2 -508c-3.33301 -116 -55.666 -183.333 -156.999 -202h-828l-59 285l235 1l-156 87v531
c4.66699 139.333 -17 206.666 -65 201.999h-123v250h123z" />
    <glyph glyph-name="uni042B" unicode="&#x42b;" horiz-adv-x="1561" 
d="M350 1356l-0.000976562 -665l96 172h411c100.667 2 155.667 -49 165 -153l2 -508c-3.33301 -116 -55.666 -183.333 -156.999 -202h-828l-59 285l235 1l-156 87v531c0.666992 27.333 0.666992 178 0 452h291zM721.999 286v259l-379 -1l-1 -258h380zM1496 1367l-1 -1366
h-301l-1 1320z" />
    <glyph glyph-name="uni042C" unicode="&#x42c;" horiz-adv-x="1094" 
d="M350 1356l-0.000976562 -665l96 172h411c100.667 2 155.667 -49 165 -153l2 -508c-3.33301 -116 -55.666 -183.333 -156.999 -202h-828l-59 285l235 1l-156 87v531c0.666992 27.333 0.666992 178 0 452h291zM721.999 286v259l-379 -1l-1 -258h380z" />
    <glyph glyph-name="uni042D" unicode="&#x42d;" horiz-adv-x="1247" 
d="M516 550l-32.001 275.001l429 1c-19.333 64.667 -49.666 141.667 -90.999 231h-356c-87.333 6.66699 -132.333 -25 -135 -95h-265c10.667 221.333 104.667 353 282 395h755l44 -114l23 -91l16 -95h-238l199 -89c30.667 -42 50 -137 58 -285s-24.667 -279.833 -98 -395.5
s-154 -194.834 -242 -237.501s-185.167 -63.334 -291.5 -62.001s-191.833 18.833 -256.5 52.5s-149 100.834 -253 201.501l179 223c80 -112 167 -172.667 261 -182s167.833 1.16699 221.5 31.5s103.167 81.5 148.5 153.5c17.333 26.667 31 54 41 82h-399z" />
    <glyph glyph-name="uni042E" unicode="&#x42e;" horiz-adv-x="1756" 
d="M846 1068v-770h558v770h-558zM552 608l-193.999 0.000976562v-588l-300 -51l-2 1387h302v-464l194 2v408l294 61v-131l78 131h660c81.333 -22.667 119.666 -137.334 114.999 -344.001v-901c-16 -73.333 -78.333 -111.666 -187 -114.999h-763
c-113.333 -4.66699 -179 44.666 -197 147.999v457z" />
    <glyph glyph-name="uni042F" unicode="&#x42f;" horiz-adv-x="1167" 
d="M1111 1062l-216 0.998047l137 -76l2 -421l108 -68l-110 -235v-266l-280 2l-1 357l-157 74l-63 -120c-116.667 -197.333 -227.334 -306.666 -332.001 -327.999l-161 -30l-23 308c107.333 14 190.333 67 249 159l79 126c-94 41.333 -159.333 77.833 -196 109.5
s-64.667 93.834 -84 186.501l-2 402c22.667 70.667 64.334 109.667 125.001 117h862zM343 1062v-138c0 -59.333 36.333 -102.333 109 -129l299 -118v385h-408z" />
    <glyph glyph-name="uni0430" unicode="&#x430;" horiz-adv-x="1306" 
d="M594 1460l246 -93l-29 -96h396l-41 -296l-216 -1l343 -919l-265 -91l-352 940l-393 -932l-269 82l388 924l-283 1l22 292h374zM721 440l153 -168l-283 -284l-154 166z" />
    <glyph glyph-name="uni0431" unicode="&#x431;" horiz-adv-x="1150" 
d="M432 1072l0.000976562 -230.999l429 -1c140 5.33301 218 -44.667 234 -150v-436c-7.33301 -78 -32.833 -138.5 -76.5 -181.5s-96.834 -71.833 -159.501 -86.5c-146.667 -34.667 -298.667 -19.334 -456 45.999l100 251c141.333 -44.667 229.5 -55.5 264.5 -32.5
s49.167 138.167 42.5 345.5l-378 -2v-246c-35.333 -255.333 -156 -371 -362 -347v253c62 -0.666992 88 52 78 158v173h-80l1 255l102 -2v237h-106l36 284h889l-64 -287h-494z" />
    <glyph glyph-name="uni0432" unicode="&#x432;" horiz-adv-x="1150" 
d="M101 1359l624 0.000976562c134 -7.33301 215.333 -39 244 -95s40.334 -116 35.001 -180s-53 -145.333 -143 -244c140 5.33301 218 -44.667 234 -150v-436c-7.33301 -78 -32.833 -138.5 -76.5 -181.5s-96.834 -71.833 -159.501 -86.5
c-146.667 -34.667 -298.667 -19.334 -456 45.999l100 251c141.333 -44.667 229.5 -55.5 264.5 -32.5s49.167 138.167 42.5 345.5l-378 -2v-246c-35.333 -255.333 -156 -371 -362 -347v253c62 -0.666992 88 52 78 158v173h-80l1 255l102 -2v237h-106zM432 1075v-224l129 28
c90.667 48.667 132 114 124 196h-253z" />
    <glyph glyph-name="uni0433" unicode="&#x433;" horiz-adv-x="1036" 
d="M99 1360h891l-64 -287h-462l-3 -1036l-300 -63v1032l145 67h-256z" />
    <glyph glyph-name="uni0434" unicode="&#x434;" horiz-adv-x="1619" 
d="M551 296h535c8.66699 139.333 -5 268 -41 386s-115 226.333 -237 325zM391 0v-246.999l-303 46l1 486h135l418 1235l305 -115l-68 -191l144 55c112 -134 196 -256.833 252 -368.5s96.667 -251.167 122 -418.5c10 -66.667 15 -132.334 15 -197.001h149l1 -532l-303 46v201
h-868z" />
    <glyph glyph-name="uni0435" unicode="&#x435;" horiz-adv-x="1163" 
d="M59 1352h989v-285l-571 -1v-159l452 -1l-32 -275h-420v-353l588 68l84 -302l-1042 -131l-32 302l118 20v394h-124l28 257l98 1l-1 116l161 59l-296 -1v291z" />
    <glyph glyph-name="uni0436" unicode="&#x436;" horiz-adv-x="1967" 
d="M1127 869l522.004 522l207 -207l-444 -447c149.333 -271.333 245.166 -411 287.499 -419s92.833 12.667 151.5 62l109 -269c-72.667 -78 -141.834 -120.5 -207.501 -127.5s-131.5 1.5 -197.5 25.5s-188.333 203.333 -367 538l-61 -66v-482h-285v482l-61 66
c-178.667 -334.667 -301 -514 -367 -538s-131.833 -32.5 -197.5 -25.5s-134.834 49.5 -207.501 127.5l109 269c58.667 -49.333 109.167 -70 151.5 -62s138.166 147.667 287.499 419l-444 447l207 207l522 -522l1 491h284v-491z" />
    <glyph glyph-name="uni0437" unicode="&#x437;" horiz-adv-x="1107" 
d="M1069 1065l-176.001 1v-221l135 1l41 -274l-165 1v-168c-13.333 -112 -45.5 -196.833 -96.5 -254.5s-100 -99 -147 -124s-217.5 -34.167 -511.5 -27.5l-49 283h366c64.667 0.666992 110.834 24.167 138.501 70.5s36.5 119.833 26.5 220.5l-283 -1l-48 272h324v214l-486 2
l-80 302h963z" />
    <glyph glyph-name="uni0438" unicode="&#x438;" horiz-adv-x="1205" 
d="M860 1150l0.000976562 205.001h288v-1122c4.66699 -51.333 -17.5 -105.833 -66.5 -163.5s-149.5 -82.5 -301.5 -74.5v283c66.667 5.33301 94.667 48.333 84 129v13l-3 443v75c-95.333 -26.667 -195.333 -83.667 -300 -171
c-106.667 -88.667 -170.334 -159.334 -191.001 -212.001c-18 -48.667 -27.667 -93.667 -29 -135v-425h-291l2 1362h290l-1 -216v-278l17 40c65.333 96 128.5 165.167 189.5 207.5s155.167 80.5 282.5 114.5z" />
    <glyph glyph-name="uni0439" unicode="&#x439;" horiz-adv-x="1205" 
d="M860 1150l0.000976562 205.001h288v-1122c4.66699 -51.333 -17.5 -105.833 -66.5 -163.5s-149.5 -82.5 -301.5 -74.5v283c66.667 5.33301 94.667 48.333 84 129v13l-3 443v75c-95.333 -26.667 -195.333 -83.667 -300 -171
c-106.667 -88.667 -170.334 -159.334 -191.001 -212.001c-18 -48.667 -27.667 -93.667 -29 -135v-425h-291l2 1362h290l-1 -216v-278l17 40c65.333 96 128.5 165.167 189.5 207.5s155.167 80.5 282.5 114.5zM387.001 1732l472 1l-45 -258h-472z" />
    <glyph glyph-name="uni043A" unicode="&#x43a;" horiz-adv-x="1171" 
d="M859 1391l207.002 -207l-444 -447c149.333 -271.333 245.166 -411 287.499 -419s92.833 12.667 151.5 62l109 -269c-72.667 -78 -141.834 -120.5 -207.501 -127.5s-131.5 1.5 -197.5 25.5s-188.333 203.333 -367 538l-61 -66v-482h-285v1361h284l1 -491z" />
    <glyph glyph-name="uni043B" unicode="&#x43b;" horiz-adv-x="1303" 
d="M3 64l493 1456l305 -115l-68 -191l144 55c112 -134 196 -256.833 252 -368.5s96.667 -251.334 122 -419.001s19 -328.167 -19 -481.5h-405l-33 297l146 -1c8.66699 139.333 -5 268 -41 386s-115 226.333 -237 325l-364 -1023z" />
    <glyph glyph-name="uni043C" unicode="&#x43c;" horiz-adv-x="1502" 
d="M108 1343l257 109l393 -932l352 940l14 -5l326 -88l-1 -1366h-318l-2 710l-97 -261l-139 -297l29 -96l-246 -93l-79 189l-113 293l-122 291v-736h-304l-1 1320z" />
    <glyph glyph-name="uni043D" unicode="&#x43d;" horiz-adv-x="1193" 
d="M56 1356h302v-464l440 3v457l302 2v-471h52l24 -275h-76v-440c-20 -60 -45 -99.833 -75 -119.5s-76.833 -34.667 -140.5 -45s-127.5 -15.5 -191.5 -15.5l-2 264c61.333 4 99.333 29.333 114 76v279l-367 1l-80 127v-715l-300 -51z" />
    <glyph glyph-name="uni043E" unicode="&#x43e;" horiz-adv-x="1247" 
d="M342 1363l0.000976562 -130.999l78 131h660c81.333 -22.667 119.666 -137.334 114.999 -344.001v-901c-16 -73.333 -78.333 -111.666 -187 -114.999h-763c-113.333 -4.66699 -179 44.666 -197 147.999v1151zM342.001 1068v-770h558v770h-558z" />
    <glyph glyph-name="uni043F" unicode="&#x43f;" horiz-adv-x="1193" 
d="M1152 1356l24 -275h-76v-913c-20 -60 -45 -99.833 -75 -119.5s-76.833 -34.667 -140.5 -45s-127.5 -15.5 -191.5 -15.5l-2 264c61.333 4 99.333 29.333 114 76v279l-7 288v176l-360 1l-80 127v-1179l-300 -51l-2 1387h1096z" />
    <glyph glyph-name="uni0440" unicode="&#x440;" horiz-adv-x="1145" 
d="M933 1356c101.333 -18.667 153.667 -86.001 157 -202.001l-2 -508c-9.33301 -104 -64.333 -155 -165 -153h-411l-96 172v-454c-16 -101.333 -50.333 -164.166 -103 -188.499s-136.667 -35.833 -252 -34.5l-1 263c48 -11.333 69.667 55.667 65 201v531l156 87l-235 1
l59 285h828zM408.001 1070l1 -258l379 -1v259h-380z" />
    <glyph glyph-name="uni0441" unicode="&#x441;" horiz-adv-x="1247" 
d="M922 1357c177.333 -42 271.332 -173.668 281.999 -395.001h-265c-2.66699 70 -47.667 101.667 -135 95h-356c-73.333 -158.667 -111.833 -278.667 -115.5 -360s17.333 -157.833 63 -229.5s95.334 -122.667 149.001 -153s127.5 -40.833 221.5 -31.5s181 70 261 182
l179 -223c-104 -100.667 -188.333 -167.834 -253 -201.501s-150.167 -51.167 -256.5 -52.5s-203.5 19.334 -291.5 62.001s-168.667 121.834 -242 237.501s-106 247.5 -98 395.5s27.333 243 58 285l199 89h-238l16 95l23 91l44 114h755z" />
    <glyph glyph-name="uni0442" unicode="&#x442;" horiz-adv-x="1015" 
d="M70 1360l908 0.000976562l-37 -300h-323v-649c-11.333 -100.667 22.667 -160.334 102 -179.001l-73 -282c-91.333 -2.66699 -168.5 27 -231.5 89s-95.5 144 -97.5 246v715l129 62l-407 1z" />
    <glyph glyph-name="uni0443" unicode="&#x443;" horiz-adv-x="1083" 
d="M220 1357l380 -745c69.333 70 117.5 163.5 144.5 280.5s34.167 258.5 21.5 424.5l278 -11c-3.33301 -353.333 -41.166 -600.166 -113.499 -740.499s-161.333 -266.333 -267 -378s-232.834 -214.834 -381.501 -309.501l-119 282l257 210l-417 803z" />
    <glyph glyph-name="uni0444" unicode="&#x444;" horiz-adv-x="1478" 
d="M591 151c-140 -0.666992 -234 9.66602 -282 30.999s-97.5 60.833 -148.5 118.5s-83.167 142.5 -96.5 254.5v657h526v126l303 46v-172h526v-657c-13.333 -112 -45.5 -196.833 -96.5 -254.5s-100.5 -97.167 -148.5 -118.5s-142 -31.666 -282 -30.999v-150h-301v150z
M893 918l-1.00098 -486h89c64.667 0.666992 107.834 24.167 129.501 70.5s31.167 89.833 28.5 130.5v285h-246zM589.999 918h-246.001v-285c-2.66699 -40.667 6.83301 -84.167 28.5 -130.5s64.834 -69.833 129.501 -70.5h89z" />
    <glyph glyph-name="uni0445" unicode="&#x445;" horiz-adv-x="1260" 
d="M266 1398l433.999 -586c117.333 168.667 210.333 355 279 559l279 -112c-88.667 -232 -217.667 -456 -387 -672l363 -487l-252 -201l-317 433c-63.333 -75.333 -127.833 -141 -193.5 -197s-154.5 -115 -266.5 -177l-206 218c228.667 150 397.334 281.667 506.001 395
l-479 639z" />
    <glyph glyph-name="uni0446" unicode="&#x446;" horiz-adv-x="1299" 
d="M948 0h-892l2 1387l300 -51v-1179l86 128h354v1071h302v-1071h150l1 -532l-303 46v201z" />
    <glyph glyph-name="uni0447" unicode="&#x447;" horiz-adv-x="1194" 
d="M826 601l-52.002 -179.001l-63 -14c-121.333 -3.33301 -229.833 7 -325.5 31s-174.5 98.833 -236.5 224.5s-87.333 283.834 -76 474.501l17 185l307 53c-38 -218 -43.167 -363.833 -15.5 -437.5s71.834 -129.167 132.501 -166.5s164.334 -38 311.001 -2v551l303 46
l-1 -1366h-301v600z" />
    <glyph glyph-name="uni0448" unicode="&#x448;" horiz-adv-x="1778" 
d="M56 0l2 1387l300 -51v-1179l86 128h254v1071h302v-1071h340v1071h302v-1081h76l-24 -275h-1638z" />
    <glyph glyph-name="uni0449" unicode="&#x449;" horiz-adv-x="1860" 
d="M1490 0h-1434l2 1387l300 -51v-1179l86 128h254v1071h302v-1071h340v1071h302v-1071h150l1 -532l-303 46v201z" />
    <glyph glyph-name="uni044A" unicode="&#x44a;" horiz-adv-x="1258" 
d="M884 286v259l-379 -1l-1 -258h380zM156 1356c116 2 200.332 -7.33203 252.999 -27.999s87 -81.667 103 -183v-454l96 172h411c100.667 2 155.667 -49 165 -153l2 -508c-3.33301 -116 -55.666 -183.333 -156.999 -202h-828l-59 285l235 1l-156 87v531
c4.66699 139.333 -17 206.666 -65 201.999h-123v250h123z" />
    <glyph glyph-name="uni044B" unicode="&#x44b;" horiz-adv-x="1561" 
d="M350 1356l-0.000976562 -665l96 172h411c100.667 2 155.667 -49 165 -153l2 -508c-3.33301 -116 -55.666 -183.333 -156.999 -202h-828l-59 285l235 1l-156 87v531c0.666992 27.333 0.666992 178 0 452h291zM721.999 286v259l-379 -1l-1 -258h380zM1496 1367l-1 -1366
h-301l-1 1320z" />
    <glyph glyph-name="uni044C" unicode="&#x44c;" horiz-adv-x="1094" 
d="M350 1356l-0.000976562 -665l96 172h411c100.667 2 155.667 -49 165 -153l2 -508c-3.33301 -116 -55.666 -183.333 -156.999 -202h-828l-59 285l235 1l-156 87v531c0.666992 27.333 0.666992 178 0 452h291zM721.999 286v259l-379 -1l-1 -258h380z" />
    <glyph glyph-name="uni044D" unicode="&#x44d;" horiz-adv-x="1247" 
d="M516 550l-32.001 275.001l429 1c-19.333 64.667 -49.666 141.667 -90.999 231h-356c-87.333 6.66699 -132.333 -25 -135 -95h-265c10.667 221.333 104.667 353 282 395h755l44 -114l23 -91l16 -95h-238l199 -89c30.667 -42 50 -137 58 -285s-24.667 -279.833 -98 -395.5
s-154 -194.834 -242 -237.501s-185.167 -63.334 -291.5 -62.001s-191.833 18.833 -256.5 52.5s-149 100.834 -253 201.501l179 223c80 -112 167 -172.667 261 -182s167.833 1.16699 221.5 31.5s103.167 81.5 148.5 153.5c17.333 26.667 31 54 41 82h-399z" />
    <glyph glyph-name="uni044E" unicode="&#x44e;" horiz-adv-x="1756" 
d="M846 1068v-770h558v770h-558zM552 608l-193.999 0.000976562v-588l-300 -51l-2 1387h302v-464l194 2v408l294 61v-131l78 131h660c81.333 -22.667 119.666 -137.334 114.999 -344.001v-901c-16 -73.333 -78.333 -111.666 -187 -114.999h-763
c-113.333 -4.66699 -179 44.666 -197 147.999v457z" />
    <glyph glyph-name="uni044F" unicode="&#x44f;" horiz-adv-x="1167" 
d="M1111 1062l-216 0.998047l137 -76l2 -421l108 -68l-110 -235v-266l-280 2l-1 357l-157 74l-63 -120c-116.667 -197.333 -227.334 -306.666 -332.001 -327.999l-161 -30l-23 308c107.333 14 190.333 67 249 159l79 126c-94 41.333 -159.333 77.833 -196 109.5
s-64.667 93.834 -84 186.501l-2 402c22.667 70.667 64.334 109.667 125.001 117h862zM343 1062v-138c0 -59.333 36.333 -102.333 109 -129l299 -118v385h-408z" />
    <glyph glyph-name="uni0451" unicode="&#x451;" horiz-adv-x="1163" 
d="M59 1352h989v-285l-571 -1v-159l452 -1l-32 -275h-420v-353l588 68l84 -302l-1042 -131l-32 302l118 20v394h-124l28 257l98 1l-1 116l161 59l-296 -1v291zM556 1548l-124 -25l-125 227l234 46zM659 1796l238 -51l-132 -227l-117 29z" />
    <glyph glyph-name="uni0452" unicode="&#x452;" 
 />
    <glyph glyph-name="uni0453" unicode="&#x453;" horiz-adv-x="747" 
 />
    <glyph glyph-name="uni0454" unicode="&#x454;" horiz-adv-x="1247" 
d="M355 550c10 -28 23.666 -55.334 40.999 -82.001c45.333 -72 94.833 -123.167 148.5 -153.5s127.5 -40.833 221.5 -31.5s181 70 261 182l179 -223c-104 -100.667 -188.333 -167.834 -253 -201.501s-150.167 -51.167 -256.5 -52.5s-203.5 19.334 -291.5 62.001
s-168.667 121.834 -242 237.501s-106 247.5 -98 395.5s27.333 243 58 285l199 89h-238l16 95l23 91l44 114h755c177.333 -42 271.333 -173.667 282 -395h-265c-2.66699 70 -47.667 101.667 -135 95h-356c-41.333 -89.333 -71.666 -166.333 -90.999 -231l429 -1l-32 -275
h-399z" />
    <glyph glyph-name="uni0455" unicode="&#x455;" horiz-adv-x="1024" 
 />
    <glyph glyph-name="uni0456" unicode="&#x456;" horiz-adv-x="457" 
d="M385 1367l-1 -1366h-301l-1 1320z" />
    <glyph glyph-name="uni0457" unicode="&#x457;" horiz-adv-x="457" 
d="M385 1367l-1 -1366h-301l-1 1320zM191 1548l-124 -25l-125 227l234 46zM294 1796l238 -51l-132 -227l-117 29z" />
    <glyph glyph-name="uni0458" unicode="&#x458;" horiz-adv-x="455" 
 />
    <glyph glyph-name="uni0459" unicode="&#x459;" horiz-adv-x="1856" 
 />
    <glyph glyph-name="uni045A" unicode="&#x45a;" horiz-adv-x="1664" 
 />
    <glyph glyph-name="uni045B" unicode="&#x45b;" 
 />
    <glyph glyph-name="uni045C" unicode="&#x45c;" horiz-adv-x="896" 
 />
    <glyph glyph-name="uni045E" unicode="&#x45e;" horiz-adv-x="1024" 
 />
    <glyph glyph-name="uni045F" unicode="&#x45f;" horiz-adv-x="1131" 
 />
    <glyph glyph-name="uni0490" unicode="&#x490;" horiz-adv-x="1036" 
d="M464 1073l-3 -1036l-300 -63v1032l145 67h-256l49 287h588v199l303 46v-532h-526z" />
    <glyph glyph-name="uni0491" unicode="&#x491;" horiz-adv-x="1036" 
d="M464 1073l-3 -1036l-300 -63v1032l145 67h-256l49 287h588v199l303 46v-532h-526z" />
    <glyph glyph-name="Wgrave" unicode="&#x1e80;" horiz-adv-x="1933" 
 />
    <glyph glyph-name="wgrave" unicode="&#x1e81;" horiz-adv-x="1479" 
 />
    <glyph glyph-name="Wacute" unicode="&#x1e82;" horiz-adv-x="1933" 
 />
    <glyph glyph-name="wacute" unicode="&#x1e83;" horiz-adv-x="1479" 
 />
    <glyph glyph-name="Wdieresis" unicode="&#x1e84;" horiz-adv-x="1933" 
 />
    <glyph glyph-name="wdieresis" unicode="&#x1e85;" horiz-adv-x="1479" 
 />
    <glyph glyph-name="Ygrave" unicode="&#x1ef2;" horiz-adv-x="1366" 
 />
    <glyph glyph-name="ygrave" unicode="&#x1ef3;" horiz-adv-x="1024" 
 />
    <glyph glyph-name="endash" unicode="&#x2013;" 
 />
    <glyph glyph-name="emdash" unicode="&#x2014;" horiz-adv-x="2048" 
 />
    <glyph glyph-name="uni2015" unicode="&#x2015;" horiz-adv-x="2048" 
 />
    <glyph glyph-name="underscoredbl" unicode="&#x2017;" horiz-adv-x="1131" 
 />
    <glyph glyph-name="quoteleft" unicode="&#x2018;" horiz-adv-x="353" 
d="M69 1399h211v-407h-211v407z" />
    <glyph glyph-name="quoteright" unicode="&#x2019;" horiz-adv-x="353" 
d="M69 1399h211v-407h-211v407z" />
    <glyph glyph-name="quotesinglbase" unicode="&#x201a;" horiz-adv-x="455" 
 />
    <glyph glyph-name="quotereversed" unicode="&#x201b;" horiz-adv-x="455" 
 />
    <glyph glyph-name="quotedblleft" unicode="&#x201c;" horiz-adv-x="598" 
d="M69 1399h211v-407h-211v407zM341 1399h195v-407h-195v407z" />
    <glyph glyph-name="quotedblright" unicode="&#x201d;" horiz-adv-x="598" 
d="M69 1399h211v-407h-211v407zM341 1399h195v-407h-195v407z" />
    <glyph glyph-name="quotedblbase" unicode="&#x201e;" horiz-adv-x="682" 
 />
    <glyph glyph-name="dagger" unicode="&#x2020;" 
 />
    <glyph glyph-name="daggerdbl" unicode="&#x2021;" 
 />
    <glyph glyph-name="bullet" unicode="&#x2022;" horiz-adv-x="717" 
 />
    <glyph glyph-name="ellipsis" unicode="&#x2026;" horiz-adv-x="2048" 
 />
    <glyph glyph-name="perthousand" unicode="&#x2030;" horiz-adv-x="2048" 
 />
    <glyph glyph-name="minute" unicode="&#x2032;" horiz-adv-x="384" 
 />
    <glyph glyph-name="second" unicode="&#x2033;" horiz-adv-x="725" 
 />
    <glyph glyph-name="guilsinglleft" unicode="&#x2039;" horiz-adv-x="682" 
 />
    <glyph glyph-name="guilsinglright" unicode="&#x203a;" horiz-adv-x="682" 
 />
    <glyph glyph-name="exclamdbl" unicode="&#x203c;" horiz-adv-x="1024" 
 />
    <glyph glyph-name="uni203E" unicode="&#x203e;" horiz-adv-x="682" 
 />
    <glyph glyph-name="fraction" unicode="&#x2044;" horiz-adv-x="342" 
 />
    <glyph glyph-name="fraction" unicode="&#x2215;" horiz-adv-x="342" 
 />
    <glyph glyph-name="uni207F" unicode="&#x207f;" horiz-adv-x="747" 
 />
    <glyph glyph-name="franc" unicode="&#x20a3;" 
 />
    <glyph glyph-name="lira" unicode="&#x20a4;" 
 />
    <glyph glyph-name="peseta" unicode="&#x20a7;" horiz-adv-x="2240" 
 />
    <glyph glyph-name="Euro" unicode="&#x20ac;" horiz-adv-x="1158" 
d="M197 903c32 92.667 84.999 176.333 158.999 251c130.667 131.333 289.667 197 477 197c80 0 154.667 -11.667 224 -35v-287c-65.333 42.667 -140 64 -224 64c-115.333 0 -213.333 -40.333 -294 -121c-22 -22 -41 -45 -57 -69h571v-146h-629
c-4.66699 -25.333 -7 -51.666 -7 -78.999c0 -10.667 0.333008 -21 1 -31h635v-148h-597c20 -42 47.667 -80.333 83 -115c80.667 -81.333 178.667 -122 294 -122c83.333 0 158 21.667 224 65v-289c-69.333 -24 -144 -36 -224 -36c-185.333 0 -343.666 66 -474.999 198
c-88 87.333 -146.667 187 -176 299h-103v148h82c-0.666992 9.33301 -1 18.666 -1 27.999c0 28 1.33301 55.333 4 82h-85v146h118z" />
    <glyph glyph-name="uni2105" unicode="&#x2105;" horiz-adv-x="1813" 
 />
    <glyph glyph-name="uni2113" unicode="&#x2113;" horiz-adv-x="662" 
 />
    <glyph glyph-name="uni2116" unicode="&#x2116;" horiz-adv-x="1413" 
 />
    <glyph glyph-name="trademark" unicode="&#x2122;" horiz-adv-x="2048" 
 />
    <glyph glyph-name="Omega" unicode="&#x2126;" horiz-adv-x="1573" 
 />
    <glyph glyph-name="estimated" unicode="&#x212e;" horiz-adv-x="1229" 
 />
    <glyph glyph-name="oneeighth" unicode="&#x215b;" horiz-adv-x="1708" 
 />
    <glyph glyph-name="threeeighths" unicode="&#x215c;" horiz-adv-x="1708" 
 />
    <glyph glyph-name="fiveeighths" unicode="&#x215d;" horiz-adv-x="1708" 
 />
    <glyph glyph-name="seveneighths" unicode="&#x215e;" horiz-adv-x="1708" 
 />
    <glyph glyph-name="arrowleft" unicode="&#x2190;" horiz-adv-x="2048" 
 />
    <glyph glyph-name="arrowup" unicode="&#x2191;" horiz-adv-x="1024" 
 />
    <glyph glyph-name="arrowright" unicode="&#x2192;" horiz-adv-x="2048" 
 />
    <glyph glyph-name="arrowdown" unicode="&#x2193;" horiz-adv-x="1024" 
 />
    <glyph glyph-name="arrowboth" unicode="&#x2194;" horiz-adv-x="2048" 
 />
    <glyph glyph-name="arrowupdn" unicode="&#x2195;" horiz-adv-x="1024" 
 />
    <glyph glyph-name="arrowupdnbse" unicode="&#x21a8;" horiz-adv-x="1024" 
 />
    <glyph glyph-name="partialdiff" unicode="&#x2202;" horiz-adv-x="1012" 
 />
    <glyph glyph-name="Delta" unicode="&#x2206;" horiz-adv-x="1253" 
 />
    <glyph glyph-name="product" unicode="&#x220f;" horiz-adv-x="1686" 
 />
    <glyph glyph-name="summation" unicode="&#x2211;" horiz-adv-x="1460" 
 />
    <glyph glyph-name="minus" unicode="&#x2212;" horiz-adv-x="1196" 
 />
    <glyph glyph-name="radical" unicode="&#x221a;" horiz-adv-x="1124" 
 />
    <glyph glyph-name="infinity" unicode="&#x221e;" horiz-adv-x="1460" 
 />
    <glyph glyph-name="orthogonal" unicode="&#x221f;" horiz-adv-x="2005" 
 />
    <glyph glyph-name="intersection" unicode="&#x2229;" horiz-adv-x="1472" 
 />
    <glyph glyph-name="integral" unicode="&#x222b;" horiz-adv-x="561" 
 />
    <glyph glyph-name="approxequal" unicode="&#x2248;" horiz-adv-x="1124" 
 />
    <glyph glyph-name="notequal" unicode="&#x2260;" horiz-adv-x="1124" 
 />
    <glyph glyph-name="equivalence" unicode="&#x2261;" horiz-adv-x="1195" 
 />
    <glyph glyph-name="lessequal" unicode="&#x2264;" horiz-adv-x="1124" 
 />
    <glyph glyph-name="greaterequal" unicode="&#x2265;" horiz-adv-x="1124" 
 />
    <glyph glyph-name="house" unicode="&#x2302;" horiz-adv-x="1237" 
 />
    <glyph glyph-name="revlogicalnot" unicode="&#x2310;" horiz-adv-x="1196" 
 />
    <glyph glyph-name="integraltp" unicode="&#x2320;" horiz-adv-x="1237" 
 />
    <glyph glyph-name="integralbt" unicode="&#x2321;" horiz-adv-x="1237" 
 />
    <glyph glyph-name="SF100000" unicode="&#x2500;" horiz-adv-x="1451" 
 />
    <glyph glyph-name="SF110000" unicode="&#x2502;" horiz-adv-x="1280" 
 />
    <glyph glyph-name="SF010000" unicode="&#x250c;" horiz-adv-x="1451" 
 />
    <glyph glyph-name="SF030000" unicode="&#x2510;" horiz-adv-x="1451" 
 />
    <glyph glyph-name="SF020000" unicode="&#x2514;" horiz-adv-x="1451" 
 />
    <glyph glyph-name="SF040000" unicode="&#x2518;" horiz-adv-x="1451" 
 />
    <glyph glyph-name="SF080000" unicode="&#x251c;" horiz-adv-x="1451" 
 />
    <glyph glyph-name="SF090000" unicode="&#x2524;" horiz-adv-x="1451" 
 />
    <glyph glyph-name="SF060000" unicode="&#x252c;" horiz-adv-x="1451" 
 />
    <glyph glyph-name="SF070000" unicode="&#x2534;" horiz-adv-x="1451" 
 />
    <glyph glyph-name="SF050000" unicode="&#x253c;" horiz-adv-x="1451" 
 />
    <glyph glyph-name="SF430000" unicode="&#x2550;" horiz-adv-x="1451" 
 />
    <glyph glyph-name="SF240000" unicode="&#x2551;" horiz-adv-x="1451" 
 />
    <glyph glyph-name="SF510000" unicode="&#x2552;" horiz-adv-x="1451" 
 />
    <glyph glyph-name="SF520000" unicode="&#x2553;" horiz-adv-x="1451" 
 />
    <glyph glyph-name="SF390000" unicode="&#x2554;" horiz-adv-x="1451" 
 />
    <glyph glyph-name="SF220000" unicode="&#x2555;" horiz-adv-x="1451" 
 />
    <glyph glyph-name="SF210000" unicode="&#x2556;" horiz-adv-x="1451" 
 />
    <glyph glyph-name="SF250000" unicode="&#x2557;" horiz-adv-x="1451" 
 />
    <glyph glyph-name="SF500000" unicode="&#x2558;" horiz-adv-x="1451" 
 />
    <glyph glyph-name="SF490000" unicode="&#x2559;" horiz-adv-x="1451" 
 />
    <glyph glyph-name="SF380000" unicode="&#x255a;" horiz-adv-x="1451" 
 />
    <glyph glyph-name="SF280000" unicode="&#x255b;" horiz-adv-x="1451" 
 />
    <glyph glyph-name="SF270000" unicode="&#x255c;" horiz-adv-x="1451" 
 />
    <glyph glyph-name="SF260000" unicode="&#x255d;" horiz-adv-x="1451" 
 />
    <glyph glyph-name="SF360000" unicode="&#x255e;" horiz-adv-x="1451" 
 />
    <glyph glyph-name="SF370000" unicode="&#x255f;" horiz-adv-x="1451" 
 />
    <glyph glyph-name="SF420000" unicode="&#x2560;" horiz-adv-x="1451" 
 />
    <glyph glyph-name="SF190000" unicode="&#x2561;" horiz-adv-x="1451" 
 />
    <glyph glyph-name="SF200000" unicode="&#x2562;" horiz-adv-x="1451" 
 />
    <glyph glyph-name="SF230000" unicode="&#x2563;" horiz-adv-x="1451" 
 />
    <glyph glyph-name="SF470000" unicode="&#x2564;" horiz-adv-x="1451" 
 />
    <glyph glyph-name="SF480000" unicode="&#x2565;" horiz-adv-x="1451" 
 />
    <glyph glyph-name="SF410000" unicode="&#x2566;" horiz-adv-x="1451" 
 />
    <glyph glyph-name="SF450000" unicode="&#x2567;" horiz-adv-x="1451" 
 />
    <glyph glyph-name="SF460000" unicode="&#x2568;" horiz-adv-x="1451" 
 />
    <glyph glyph-name="SF400000" unicode="&#x2569;" horiz-adv-x="1451" 
 />
    <glyph glyph-name="SF540000" unicode="&#x256a;" horiz-adv-x="1451" 
 />
    <glyph glyph-name="SF530000" unicode="&#x256b;" horiz-adv-x="1451" 
 />
    <glyph glyph-name="SF440000" unicode="&#x256c;" horiz-adv-x="1451" 
 />
    <glyph glyph-name="upblock" unicode="&#x2580;" horiz-adv-x="1451" 
 />
    <glyph glyph-name="dnblock" unicode="&#x2584;" horiz-adv-x="1451" 
 />
    <glyph glyph-name="block" unicode="&#x2588;" horiz-adv-x="1451" 
 />
    <glyph glyph-name="lfblock" unicode="&#x258c;" horiz-adv-x="1451" 
 />
    <glyph glyph-name="rtblock" unicode="&#x2590;" horiz-adv-x="1451" 
 />
    <glyph glyph-name="ltshade" unicode="&#x2591;" horiz-adv-x="1451" 
 />
    <glyph glyph-name="shade" unicode="&#x2592;" horiz-adv-x="1451" 
 />
    <glyph glyph-name="dkshade" unicode="&#x2593;" horiz-adv-x="1493" 
 />
    <glyph glyph-name="filledbox" unicode="&#x25a0;" horiz-adv-x="1237" 
 />
    <glyph glyph-name="H22073" unicode="&#x25a1;" horiz-adv-x="1237" 
 />
    <glyph glyph-name="H18543" unicode="&#x25aa;" horiz-adv-x="726" 
 />
    <glyph glyph-name="H18551" unicode="&#x25ab;" horiz-adv-x="726" 
 />
    <glyph glyph-name="filledrect" unicode="&#x25ac;" horiz-adv-x="2048" 
 />
    <glyph glyph-name="triagup" unicode="&#x25b2;" horiz-adv-x="2027" 
 />
    <glyph glyph-name="triagrt" unicode="&#x25ba;" horiz-adv-x="2027" 
 />
    <glyph glyph-name="triagdn" unicode="&#x25bc;" horiz-adv-x="2027" 
 />
    <glyph glyph-name="triaglf" unicode="&#x25c4;" horiz-adv-x="2027" 
 />
    <glyph glyph-name="lozenge" unicode="&#x25ca;" horiz-adv-x="1012" 
 />
    <glyph glyph-name="circle" unicode="&#x25cb;" horiz-adv-x="1237" 
 />
    <glyph glyph-name="H18533" unicode="&#x25cf;" horiz-adv-x="1237" 
 />
    <glyph glyph-name="invbullet" unicode="&#x25d8;" horiz-adv-x="1237" 
 />
    <glyph glyph-name="invcircle" unicode="&#x25d9;" horiz-adv-x="1237" 
 />
    <glyph glyph-name="openbullet" unicode="&#x25e6;" horiz-adv-x="726" 
 />
    <glyph glyph-name="smileface" unicode="&#x263a;" horiz-adv-x="2091" 
 />
    <glyph glyph-name="invsmileface" unicode="&#x263b;" horiz-adv-x="2155" 
 />
    <glyph glyph-name="sun" unicode="&#x263c;" horiz-adv-x="1877" 
 />
    <glyph glyph-name="female" unicode="&#x2640;" horiz-adv-x="1536" 
 />
    <glyph glyph-name="male" unicode="&#x2642;" horiz-adv-x="1536" 
 />
    <glyph glyph-name="spade" unicode="&#x2660;" horiz-adv-x="1088" 
 />
    <glyph glyph-name="club" unicode="&#x2663;" horiz-adv-x="1344" 
 />
    <glyph glyph-name="heart" unicode="&#x2665;" horiz-adv-x="1216" 
 />
    <glyph glyph-name="diamond" unicode="&#x2666;" horiz-adv-x="1045" 
 />
    <glyph glyph-name="musicalnote" unicode="&#x266a;" horiz-adv-x="1024" 
 />
    <glyph glyph-name="musicalnotedbl" unicode="&#x266b;" horiz-adv-x="1536" 
 />
    <glyph glyph-name="fi" unicode="&#xf001;" horiz-adv-x="1024" 
 />
    <glyph glyph-name="fi" unicode="&#xfb01;" horiz-adv-x="1024" 
 />
    <glyph glyph-name="fl" unicode="&#xf002;" horiz-adv-x="1024" 
 />
    <glyph glyph-name="fl" unicode="&#xfb02;" horiz-adv-x="1024" 
 />
    <glyph glyph-name="commaaccent" unicode="&#xf004;" horiz-adv-x="682" 
 />
    <glyph glyph-name="undercommaaccent" unicode="&#xf005;" horiz-adv-x="682" 
 />
    <glyph glyph-name="nonmarkingreturn" horiz-adv-x="569" 
 />
    <glyph glyph-name="pi1" horiz-adv-x="1124" 
 />
    <glyph glyph-name="middot" horiz-adv-x="682" 
 />
    </font>
</defs>
</svg>
