<svg xmlns="http://www.w3.org/2000/svg" width="1920" height="1080" viewBox="0 0 1920 1080">
  <defs>
    <style>
      .cls-1 {
        fill-rule: evenodd;
      }
    </style>
  </defs>
  <g id="Монтажная_область_1" data-name="Монтажная область 1">
    <path id="Заливка_цветом_1" data-name="Заливка цветом 1" class="cls-1" d="M406.094,598.5h26.919l6.539-27.539H477.1l6.65,27.539h29.962L475.625,465.2H446.133Zm39.1-50.391L458.116,493.5l13.472,54.612h-26.4Zm117.834-84.961q-19.043,0-30.615,11.475T520.84,504.066a36.19,36.19,0,0,0,4.883,18.8,35.149,35.149,0,0,0,12.4,12.7q7.52,4.444,22.851,9.912,11.914,4.3,15.235,8.154a13.045,13.045,0,0,1,3.32,8.74,12.892,12.892,0,0,1-4.736,10.4q-4.739,3.954-12.354,3.955-16.7,0-21.386-20.118l-25.586,7.325q10.056,36.621,46.289,36.621,21.58,0,34.424-11.963t12.841-30.615a37.44,37.44,0,0,0-4.541-18.7,35.365,35.365,0,0,0-11.914-12.744q-7.374-4.687-20.263-9.472-14.161-5.469-18.6-8.838a10.756,10.756,0,0,1-4.443-9.033,11.565,11.565,0,0,1,3.76-8.545q3.757-3.663,10.2-3.663,13.769,0,18.945,16.5l24.219-9.277q-8.595-31.054-43.36-31.055h0ZM627.09,598.5h29.3V465.2h-29.3V598.5Zm37.988,0H692l6.538-27.539h37.547l6.65,27.539H772.7L734.609,465.2H705.117Zm39.1-50.391L717.1,493.5l13.472,54.612H704.177ZM782.754,598.5H805.41V502.016L846.035,598.5h26.172V465.2H849.551v82.813L815.273,465.2H782.754V598.5Zm150.781,0h29.3V545.766h38.378V522.914H962.832V488.051h49.808V465.2H933.535V598.5Zm88.575,0h81.05V574.672h-51.75V541.859h40.23V519.008h-40.23V488.051h51.75V465.2h-81.05V598.5ZM1155.7,463.148q-19.035,0-30.61,11.475t-11.57,29.443a36.16,36.16,0,0,0,4.88,18.8,35.144,35.144,0,0,0,12.4,12.7q7.515,4.444,22.85,9.912,11.91,4.3,15.24,8.154a13.055,13.055,0,0,1,3.32,8.74,12.886,12.886,0,0,1-4.74,10.4q-4.74,3.954-12.35,3.955-16.71,0-21.39-20.118l-25.59,7.325q10.065,36.621,46.29,36.621,21.585,0,34.43-11.963t12.84-30.615a37.419,37.419,0,0,0-4.54-18.7,35.364,35.364,0,0,0-11.92-12.744q-7.365-4.687-20.26-9.472-14.16-5.469-18.6-8.838a10.744,10.744,0,0,1-4.45-9.033,11.591,11.591,0,0,1,3.76-8.545q3.765-3.663,10.21-3.663,13.77,0,18.94,16.5l24.22-9.277q-8.6-31.054-43.36-31.055h0Zm53.52,27.051h26.56V598.5h29.3V490.2h27.24v-25h-83.1v25Zm93.26,108.3h29.3V465.2h-29.3V598.5Zm71.19,0,32.81,0.684L1439.2,465.2h-25.13l-21.2,101.63-20.5-101.63h-30.73Zm57.23,0h26.92l6.54-27.539h37.54l6.65,27.539h29.97l-38.09-133.3h-29.49Zm39.1-50.391,12.92-54.612,13.47,54.612H1470Zm79.65,50.391h72.26v-25h-42.97V465.2h-29.29V598.5Z"/>
  </g>
</svg>
